<?xml version="1.0" encoding="utf-8"?>
<svg width="150px" height="112px" viewBox="0 0 150 112" version="1.1" xmlns:xlink="http://www.w3.org/1999/xlink" xmlns="http://www.w3.org/2000/svg">
  <desc>Created with Lunacy</desc>
  <defs>
    <linearGradient x1="0.50003606" y1="1.2891915" x2="0.50003606" y2="-0.8256544" id="gradient_1">
      <stop offset="0" stop-color="#183D6D" />
      <stop offset="0.19" stop-color="#1C4373" />
      <stop offset="0.45" stop-color="#265483" />
      <stop offset="0.75" stop-color="#376F9F" />
      <stop offset="1" stop-color="#498DBC" />
    </linearGradient>
    <linearGradient x1="0.49996394" y1="1.2118226" x2="0.49996394" y2="-0.18081716" id="gradient_2">
      <stop offset="0" stop-color="#002649" />
      <stop offset="0.32" stop-color="#042A4F" />
      <stop offset="0.75" stop-color="#0F3460" />
      <stop offset="1" stop-color="#183D6D" />
    </linearGradient>
    <linearGradient x1="0.5" y1="1.5376964" x2="0.5" y2="-0.4963351" id="gradient_3">
      <stop offset="0" stop-color="#FF2A64" />
      <stop offset="0.08" stop-color="#FF465E" />
      <stop offset="0.18" stop-color="#FF6657" />
      <stop offset="0.29" stop-color="#FF8152" />
      <stop offset="0.42" stop-color="#FF954D" />
      <stop offset="0.56" stop-color="#FFA44A" />
      <stop offset="0.73" stop-color="#FFAC49" />
      <stop offset="1" stop-color="#FFAF48" />
    </linearGradient>
  </defs>
  <g id="Icon-4">
    <path d="M7.009 0L131.701 0Q131.873 0 132.045 0.00844265Q132.217 0.0168853 132.388 0.0337503Q132.559 0.0506152 132.729 0.0758618Q132.9 0.101108 133.068 0.134676Q133.237 0.168243 133.404 0.210051Q133.571 0.251858 133.736 0.301805Q133.9 0.351752 134.062 0.409718Q134.224 0.467683 134.383 0.533528Q134.542 0.599373 134.698 0.672939Q134.853 0.746505 135.005 0.827614Q135.157 0.908723 135.304 0.99718Q135.452 1.08564 135.595 1.18123Q135.738 1.27682 135.876 1.37932Q136.014 1.48182 136.147 1.59097Q136.28 1.70012 136.408 1.81567Q136.535 1.93122 136.657 2.05289Q136.779 2.17455 136.894 2.30204Q137.01 2.42953 137.119 2.56254Q137.228 2.69554 137.331 2.83374Q137.433 2.97194 137.529 3.11501Q137.624 3.25807 137.713 3.40565Q137.801 3.55324 137.882 3.70498Q137.963 3.85672 138.037 4.01227Q138.111 4.16781 138.176 4.32677Q138.242 4.48574 138.3 4.64774Q138.358 4.80974 138.408 4.97439Q138.458 5.13905 138.5 5.30595Q138.542 5.47286 138.575 5.64161Q138.609 5.81037 138.634 5.98057Q138.659 6.15076 138.676 6.322Q138.693 6.49323 138.702 6.66509Q138.71 6.83694 138.71 7.009L138.71 96.521Q138.71 96.6931 138.702 96.8649Q138.693 97.0368 138.676 97.208Q138.659 97.3792 138.634 97.5494Q138.609 97.7196 138.575 97.8884Q138.542 98.0571 138.5 98.224Q138.458 98.3909 138.408 98.5556Q138.358 98.7203 138.3 98.8822Q138.242 99.0443 138.176 99.2032Q138.111 99.3622 138.037 99.5177Q137.963 99.6733 137.882 99.825Q137.801 99.9768 137.713 100.124Q137.624 100.272 137.529 100.415Q137.433 100.558 137.331 100.696Q137.228 100.834 137.119 100.967Q137.01 101.1 136.894 101.228Q136.779 101.355 136.657 101.477Q136.535 101.599 136.408 101.714Q136.28 101.83 136.147 101.939Q136.014 102.048 135.876 102.151Q135.738 102.253 135.595 102.349Q135.452 102.444 135.304 102.533Q135.157 102.621 135.005 102.702Q134.853 102.783 134.698 102.857Q134.542 102.931 134.383 102.996Q134.224 103.062 134.062 103.12Q133.9 103.178 133.736 103.228Q133.571 103.278 133.404 103.32Q133.237 103.362 133.068 103.395Q132.9 103.429 132.729 103.454Q132.559 103.479 132.388 103.496Q132.217 103.513 132.045 103.522Q131.873 103.53 131.701 103.53L7.009 103.53Q6.83694 103.53 6.66508 103.522Q6.49323 103.513 6.322 103.496Q6.15076 103.479 5.98057 103.454Q5.81037 103.429 5.64161 103.395Q5.47286 103.362 5.30595 103.32Q5.13905 103.278 4.97439 103.228Q4.80974 103.178 4.64774 103.12Q4.48574 103.062 4.32677 102.996Q4.16781 102.931 4.01227 102.857Q3.85672 102.783 3.70498 102.702Q3.55324 102.621 3.40565 102.533Q3.25807 102.444 3.11501 102.349Q2.97194 102.253 2.83374 102.151Q2.69554 102.048 2.56254 101.939Q2.42953 101.83 2.30204 101.714Q2.17455 101.599 2.05289 101.477Q1.93122 101.355 1.81567 101.228Q1.70012 101.1 1.59097 100.967Q1.48182 100.834 1.37932 100.696Q1.27682 100.558 1.18123 100.415Q1.08564 100.272 0.99718 100.124Q0.908723 99.9768 0.827614 99.825Q0.746505 99.6733 0.672939 99.5177Q0.599373 99.3622 0.533528 99.2032Q0.467683 99.0443 0.409718 98.8822Q0.351752 98.7203 0.301805 98.5556Q0.251858 98.3909 0.210051 98.224Q0.168243 98.0571 0.134676 97.8884Q0.101108 97.7196 0.0758618 97.5494Q0.0506152 97.3792 0.0337503 97.208Q0.0168853 97.0368 0.00844265 96.8649Q0 96.6931 0 96.521L0 7.009Q0 6.83694 0.00844265 6.66508Q0.0168853 6.49323 0.0337503 6.322Q0.0506152 6.15076 0.0758618 5.98057Q0.101108 5.81037 0.134676 5.64161Q0.168243 5.47286 0.210051 5.30595Q0.251858 5.13905 0.301805 4.97439Q0.351752 4.80974 0.409718 4.64774Q0.467683 4.48574 0.533528 4.32677Q0.599373 4.16781 0.672939 4.01227Q0.746505 3.85672 0.827614 3.70498Q0.908723 3.55324 0.99718 3.40565Q1.08564 3.25807 1.18123 3.11501Q1.27682 2.97194 1.37932 2.83374Q1.48182 2.69554 1.59097 2.56254Q1.70012 2.42953 1.81567 2.30204Q1.93122 2.17455 2.05289 2.05289Q2.17455 1.93122 2.30204 1.81567Q2.42953 1.70012 2.56254 1.59097Q2.69554 1.48182 2.83374 1.37932Q2.97194 1.27682 3.11501 1.18123Q3.25807 1.08564 3.40565 0.99718Q3.55324 0.908723 3.70498 0.827614Q3.85672 0.746505 4.01227 0.672939Q4.16781 0.599373 4.32677 0.533528Q4.48574 0.467683 4.64774 0.409718Q4.80974 0.351752 4.97439 0.301805Q5.13905 0.251858 5.30595 0.210051Q5.47286 0.168243 5.64161 0.134676Q5.81037 0.101108 5.98057 0.0758618Q6.15076 0.0506152 6.322 0.0337503Q6.49323 0.0168853 6.66509 0.00844265Q6.83694 0 7.009 0L7.009 0Z" transform="translate(11.29 8.43)" id="Rectangle" fill="url(#gradient_1)" fill-rule="evenodd" stroke="none" />
    <path d="M7.009 0L131.701 0Q131.873 0 132.045 0.00844265Q132.217 0.0168853 132.388 0.0337503Q132.559 0.0506152 132.729 0.0758618Q132.9 0.101108 133.068 0.134676Q133.237 0.168243 133.404 0.210051Q133.571 0.251858 133.736 0.301805Q133.9 0.351752 134.062 0.409718Q134.224 0.467683 134.383 0.533528Q134.542 0.599373 134.698 0.672939Q134.853 0.746505 135.005 0.827614Q135.157 0.908723 135.304 0.99718Q135.452 1.08564 135.595 1.18123Q135.738 1.27682 135.876 1.37932Q136.014 1.48182 136.147 1.59097Q136.28 1.70012 136.408 1.81567Q136.535 1.93122 136.657 2.05289Q136.779 2.17455 136.894 2.30204Q137.01 2.42953 137.119 2.56254Q137.228 2.69554 137.331 2.83374Q137.433 2.97194 137.529 3.11501Q137.624 3.25807 137.713 3.40565Q137.801 3.55324 137.882 3.70498Q137.963 3.85672 138.037 4.01227Q138.111 4.16781 138.176 4.32677Q138.242 4.48574 138.3 4.64774Q138.358 4.80974 138.408 4.97439Q138.458 5.13905 138.5 5.30595Q138.542 5.47286 138.575 5.64161Q138.609 5.81037 138.634 5.98057Q138.659 6.15076 138.676 6.322Q138.693 6.49323 138.702 6.66509Q138.71 6.83694 138.71 7.009L138.71 96.521Q138.71 96.6931 138.702 96.8649Q138.693 97.0368 138.676 97.208Q138.659 97.3792 138.634 97.5494Q138.609 97.7196 138.575 97.8884Q138.542 98.0571 138.5 98.224Q138.458 98.3909 138.408 98.5556Q138.358 98.7203 138.3 98.8822Q138.242 99.0443 138.176 99.2032Q138.111 99.3622 138.037 99.5177Q137.963 99.6733 137.882 99.825Q137.801 99.9768 137.713 100.124Q137.624 100.272 137.529 100.415Q137.433 100.558 137.331 100.696Q137.228 100.834 137.119 100.967Q137.01 101.1 136.894 101.228Q136.779 101.355 136.657 101.477Q136.535 101.599 136.408 101.714Q136.28 101.83 136.147 101.939Q136.014 102.048 135.876 102.151Q135.738 102.253 135.595 102.349Q135.452 102.444 135.304 102.533Q135.157 102.621 135.005 102.702Q134.853 102.783 134.698 102.857Q134.542 102.931 134.383 102.996Q134.224 103.062 134.062 103.12Q133.9 103.178 133.736 103.228Q133.571 103.278 133.404 103.32Q133.237 103.362 133.068 103.395Q132.9 103.429 132.729 103.454Q132.559 103.479 132.388 103.496Q132.217 103.513 132.045 103.522Q131.873 103.53 131.701 103.53L7.009 103.53Q6.83694 103.53 6.66508 103.522Q6.49323 103.513 6.322 103.496Q6.15076 103.479 5.98057 103.454Q5.81037 103.429 5.64161 103.395Q5.47286 103.362 5.30595 103.32Q5.13905 103.278 4.97439 103.228Q4.80974 103.178 4.64774 103.12Q4.48574 103.062 4.32677 102.996Q4.16781 102.931 4.01227 102.857Q3.85672 102.783 3.70498 102.702Q3.55324 102.621 3.40565 102.533Q3.25807 102.444 3.11501 102.349Q2.97194 102.253 2.83374 102.151Q2.69554 102.048 2.56254 101.939Q2.42953 101.83 2.30204 101.714Q2.17455 101.599 2.05289 101.477Q1.93122 101.355 1.81567 101.228Q1.70012 101.1 1.59097 100.967Q1.48182 100.834 1.37932 100.696Q1.27682 100.558 1.18123 100.415Q1.08564 100.272 0.99718 100.124Q0.908723 99.9768 0.827614 99.825Q0.746505 99.6733 0.672939 99.5177Q0.599373 99.3622 0.533528 99.2032Q0.467683 99.0443 0.409718 98.8822Q0.351752 98.7203 0.301805 98.5556Q0.251858 98.3909 0.210051 98.224Q0.168243 98.0571 0.134676 97.8884Q0.101108 97.7196 0.0758618 97.5494Q0.0506152 97.3792 0.0337503 97.208Q0.0168853 97.0368 0.00844265 96.8649Q0 96.6931 0 96.521L0 7.009Q0 6.83694 0.00844265 6.66508Q0.0168853 6.49323 0.0337503 6.322Q0.0506152 6.15076 0.0758618 5.98057Q0.101108 5.81037 0.134676 5.64161Q0.168243 5.47286 0.210051 5.30595Q0.251858 5.13905 0.301805 4.97439Q0.351752 4.80974 0.409718 4.64774Q0.467683 4.48574 0.533528 4.32677Q0.599373 4.16781 0.672939 4.01227Q0.746505 3.85672 0.827614 3.70498Q0.908723 3.55324 0.99718 3.40565Q1.08564 3.25807 1.18123 3.11501Q1.27682 2.97194 1.37932 2.83374Q1.48182 2.69554 1.59097 2.56254Q1.70012 2.42953 1.81567 2.30204Q1.93122 2.17455 2.05289 2.05289Q2.17455 1.93122 2.30204 1.81567Q2.42953 1.70012 2.56254 1.59097Q2.69554 1.48182 2.83374 1.37932Q2.97194 1.27682 3.11501 1.18123Q3.25807 1.08564 3.40565 0.99718Q3.55324 0.908723 3.70498 0.827614Q3.85672 0.746505 4.01227 0.672939Q4.16781 0.599373 4.32677 0.533528Q4.48574 0.467683 4.64774 0.409718Q4.80974 0.351752 4.97439 0.301805Q5.13905 0.251858 5.30595 0.210051Q5.47286 0.168243 5.64161 0.134676Q5.81037 0.101108 5.98057 0.0758618Q6.15076 0.0506152 6.322 0.0337503Q6.49323 0.0168853 6.66509 0.00844265Q6.83694 0 7.009 0L7.009 0Z" id="Rectangle" fill="url(#gradient_2)" fill-rule="evenodd" stroke="none" />
    <path d="M7.009 0L131.701 0Q131.873 0 132.045 0.00844265Q132.217 0.0168853 132.388 0.0337503Q132.559 0.0506152 132.729 0.0758618Q132.9 0.101108 133.068 0.134676Q133.237 0.168243 133.404 0.210051Q133.571 0.251858 133.736 0.301805Q133.9 0.351752 134.062 0.409718Q134.224 0.467683 134.383 0.533528Q134.542 0.599373 134.698 0.672939Q134.853 0.746505 135.005 0.827614Q135.157 0.908723 135.304 0.99718Q135.452 1.08564 135.595 1.18123Q135.738 1.27682 135.876 1.37932Q136.014 1.48182 136.147 1.59097Q136.28 1.70012 136.408 1.81567Q136.535 1.93122 136.657 2.05289Q136.779 2.17455 136.894 2.30204Q137.01 2.42953 137.119 2.56254Q137.228 2.69554 137.331 2.83374Q137.433 2.97194 137.529 3.11501Q137.624 3.25807 137.713 3.40565Q137.801 3.55324 137.882 3.70498Q137.963 3.85672 138.037 4.01227Q138.111 4.16781 138.176 4.32677Q138.242 4.48574 138.3 4.64774Q138.358 4.80974 138.408 4.97439Q138.458 5.13905 138.5 5.30595Q138.542 5.47286 138.575 5.64161Q138.609 5.81037 138.634 5.98057Q138.659 6.15076 138.676 6.322Q138.693 6.49323 138.702 6.66509Q138.71 6.83694 138.71 7.009L138.71 96.521Q138.71 96.6931 138.702 96.8649Q138.693 97.0368 138.676 97.208Q138.659 97.3792 138.634 97.5494Q138.609 97.7196 138.575 97.8884Q138.542 98.0571 138.5 98.224Q138.458 98.3909 138.408 98.5556Q138.358 98.7203 138.3 98.8822Q138.242 99.0443 138.176 99.2032Q138.111 99.3622 138.037 99.5177Q137.963 99.6733 137.882 99.825Q137.801 99.9768 137.713 100.124Q137.624 100.272 137.529 100.415Q137.433 100.558 137.331 100.696Q137.228 100.834 137.119 100.967Q137.01 101.1 136.894 101.228Q136.779 101.355 136.657 101.477Q136.535 101.599 136.408 101.714Q136.28 101.83 136.147 101.939Q136.014 102.048 135.876 102.151Q135.738 102.253 135.595 102.349Q135.452 102.444 135.304 102.533Q135.157 102.621 135.005 102.702Q134.853 102.783 134.698 102.857Q134.542 102.931 134.383 102.996Q134.224 103.062 134.062 103.12Q133.9 103.178 133.736 103.228Q133.571 103.278 133.404 103.32Q133.237 103.362 133.068 103.395Q132.9 103.429 132.729 103.454Q132.559 103.479 132.388 103.496Q132.217 103.513 132.045 103.522Q131.873 103.53 131.701 103.53L7.009 103.53Q6.83694 103.53 6.66508 103.522Q6.49323 103.513 6.322 103.496Q6.15076 103.479 5.98057 103.454Q5.81037 103.429 5.64161 103.395Q5.47286 103.362 5.30595 103.32Q5.13905 103.278 4.97439 103.228Q4.80974 103.178 4.64774 103.12Q4.48574 103.062 4.32677 102.996Q4.16781 102.931 4.01227 102.857Q3.85672 102.783 3.70498 102.702Q3.55324 102.621 3.40565 102.533Q3.25807 102.444 3.11501 102.349Q2.97194 102.253 2.83374 102.151Q2.69554 102.048 2.56254 101.939Q2.42953 101.83 2.30204 101.714Q2.17455 101.599 2.05289 101.477Q1.93122 101.355 1.81567 101.228Q1.70012 101.1 1.59097 100.967Q1.48182 100.834 1.37932 100.696Q1.27682 100.558 1.18123 100.415Q1.08564 100.272 0.99718 100.124Q0.908723 99.9768 0.827614 99.825Q0.746505 99.6733 0.672939 99.5177Q0.599373 99.3622 0.533528 99.2032Q0.467683 99.0443 0.409718 98.8822Q0.351752 98.7203 0.301805 98.5556Q0.251858 98.3909 0.210051 98.224Q0.168243 98.0571 0.134676 97.8884Q0.101108 97.7196 0.0758618 97.5494Q0.0506152 97.3792 0.0337503 97.208Q0.0168853 97.0368 0.00844265 96.8649Q0 96.6931 0 96.521L0 7.009Q0 6.83694 0.00844265 6.66508Q0.0168853 6.49323 0.0337503 6.322Q0.0506152 6.15076 0.0758618 5.98057Q0.101108 5.81037 0.134676 5.64161Q0.168243 5.47286 0.210051 5.30595Q0.251858 5.13905 0.301805 4.97439Q0.351752 4.80974 0.409718 4.64774Q0.467683 4.48574 0.533528 4.32677Q0.599373 4.16781 0.672939 4.01227Q0.746505 3.85672 0.827614 3.70498Q0.908723 3.55324 0.99718 3.40565Q1.08564 3.25807 1.18123 3.11501Q1.27682 2.97194 1.37932 2.83374Q1.48182 2.69554 1.59097 2.56254Q1.70012 2.42953 1.81567 2.30204Q1.93122 2.17455 2.05289 2.05289Q2.17455 1.93122 2.30204 1.81567Q2.42953 1.70012 2.56254 1.59097Q2.69554 1.48182 2.83374 1.37932Q2.97194 1.27682 3.11501 1.18123Q3.25807 1.08564 3.40565 0.99718Q3.55324 0.908723 3.70498 0.827614Q3.85672 0.746505 4.01227 0.672939Q4.16781 0.599373 4.32677 0.533528Q4.48574 0.467683 4.64774 0.409718Q4.80974 0.351752 4.97439 0.301805Q5.13905 0.251858 5.30595 0.210051Q5.47286 0.168243 5.64161 0.134676Q5.81037 0.101108 5.98057 0.0758618Q6.15076 0.0506152 6.322 0.0337503Q6.49323 0.0168853 6.66509 0.00844265Q6.83694 0 7.009 0L7.009 0Z" id="Rectangle" fill="url(#gradient_2)" fill-rule="evenodd" stroke="none" />
    <path d="M5.179 0L112.641 0Q112.768 0 112.895 0.00623833Q113.022 0.0124767 113.149 0.0249383Q113.275 0.0373999 113.401 0.0560548Q113.527 0.0747098 113.651 0.099513Q113.776 0.124316 113.899 0.155208Q114.023 0.1861 114.144 0.223006Q114.266 0.259912 114.386 0.302743Q114.505 0.345574 114.623 0.394228Q114.74 0.442881 114.855 0.497239Q114.97 0.551598 115.082 0.61153Q115.194 0.671462 115.304 0.736823Q115.413 0.802185 115.518 0.872819Q115.624 0.943452 115.726 1.01919Q115.828 1.09492 115.927 1.17558Q116.025 1.25623 116.119 1.34161Q116.213 1.42699 116.303 1.51689Q116.393 1.60679 116.478 1.701Q116.564 1.7952 116.644 1.89348Q116.725 1.99176 116.801 2.09387Q116.877 2.19599 116.947 2.3017Q117.018 2.40741 117.083 2.51646Q117.149 2.62551 117.208 2.73764Q117.268 2.84976 117.323 2.96469Q117.377 3.07962 117.426 3.19708Q117.474 3.31454 117.517 3.43425Q117.56 3.55395 117.597 3.67562Q117.634 3.79728 117.665 3.92061Q117.696 4.04393 117.72 4.16863Q117.745 4.29332 117.764 4.41908Q117.783 4.54484 117.795 4.67137Q117.808 4.79789 117.814 4.92488Q117.82 5.05186 117.82 5.179L117.82 72.521Q117.82 72.6481 117.814 72.7751Q117.808 72.9021 117.795 73.0286Q117.783 73.1552 117.764 73.2809Q117.745 73.4067 117.72 73.5314Q117.696 73.6561 117.665 73.7794Q117.634 73.9027 117.597 74.0244Q117.56 74.146 117.517 74.2657Q117.474 74.3855 117.426 74.5029Q117.377 74.6204 117.323 74.7353Q117.268 74.8502 117.208 74.9624Q117.149 75.0745 117.083 75.1835Q117.018 75.2926 116.947 75.3983Q116.877 75.504 116.801 75.6061Q116.725 75.7082 116.644 75.8065Q116.564 75.9048 116.478 75.999Q116.393 76.0932 116.303 76.1831Q116.213 76.273 116.119 76.3584Q116.025 76.4438 115.927 76.5244Q115.828 76.6051 115.726 76.6808Q115.624 76.7565 115.518 76.8272Q115.413 76.8978 115.304 76.9632Q115.194 77.0285 115.082 77.0885Q114.97 77.1484 114.855 77.2028Q114.74 77.2571 114.623 77.3058Q114.505 77.3544 114.386 77.3972Q114.266 77.4401 114.144 77.477Q114.023 77.5139 113.899 77.5448Q113.776 77.5757 113.651 77.6005Q113.527 77.6253 113.401 77.6439Q113.275 77.6626 113.149 77.6751Q113.022 77.6875 112.895 77.6938Q112.768 77.7 112.641 77.7L5.179 77.7Q5.05186 77.7 4.92488 77.6938Q4.79789 77.6875 4.67137 77.6751Q4.54484 77.6626 4.41908 77.6439Q4.29332 77.6253 4.16863 77.6005Q4.04393 77.5757 3.9206 77.5448Q3.79728 77.5139 3.67562 77.477Q3.55395 77.4401 3.43425 77.3972Q3.31454 77.3544 3.19708 77.3058Q3.07962 77.2571 2.96469 77.2028Q2.84976 77.1484 2.73764 77.0885Q2.62551 77.0285 2.51646 76.9632Q2.40741 76.8978 2.3017 76.8272Q2.19599 76.7565 2.09387 76.6808Q1.99176 76.6051 1.89348 76.5244Q1.7952 76.4438 1.701 76.3584Q1.60679 76.273 1.51689 76.1831Q1.42699 76.0932 1.34161 75.999Q1.25623 75.9048 1.17558 75.8065Q1.09492 75.7082 1.01919 75.6061Q0.943452 75.504 0.872819 75.3983Q0.802185 75.2926 0.736823 75.1835Q0.671462 75.0745 0.61153 74.9624Q0.551598 74.8502 0.497239 74.7353Q0.442881 74.6204 0.394228 74.5029Q0.345574 74.3855 0.302743 74.2657Q0.259912 74.146 0.223006 74.0244Q0.1861 73.9027 0.155208 73.7794Q0.124316 73.6561 0.099513 73.5314Q0.0747098 73.4067 0.0560548 73.2809Q0.0373999 73.1552 0.0249383 73.0286Q0.0124767 72.9021 0.00623833 72.7751Q0 72.6481 0 72.521L0 5.179Q0 5.05186 0.00623833 4.92488Q0.0124767 4.79789 0.0249383 4.67137Q0.0373999 4.54484 0.0560548 4.41908Q0.0747098 4.29332 0.099513 4.16863Q0.124316 4.04393 0.155208 3.9206Q0.1861 3.79728 0.223006 3.67562Q0.259912 3.55395 0.302743 3.43425Q0.345574 3.31454 0.394228 3.19708Q0.442881 3.07962 0.497239 2.96469Q0.551598 2.84976 0.61153 2.73764Q0.671462 2.62551 0.736823 2.51646Q0.802185 2.40741 0.872819 2.3017Q0.943452 2.19599 1.01919 2.09387Q1.09492 1.99176 1.17558 1.89348Q1.25623 1.7952 1.34161 1.701Q1.42699 1.60679 1.51689 1.51689Q1.60679 1.42699 1.701 1.34161Q1.7952 1.25623 1.89348 1.17558Q1.99176 1.09492 2.09387 1.01919Q2.19599 0.943452 2.3017 0.872819Q2.40741 0.802185 2.51646 0.736823Q2.62551 0.671462 2.73764 0.61153Q2.84976 0.551598 2.96469 0.497239Q3.07962 0.442881 3.19708 0.394228Q3.31454 0.345574 3.43425 0.302743Q3.55395 0.259912 3.67562 0.223006Q3.79728 0.1861 3.92061 0.155208Q4.04393 0.124316 4.16863 0.099513Q4.29332 0.0747098 4.41908 0.0560548Q4.54484 0.0373999 4.67137 0.0249383Q4.79789 0.0124767 4.92488 0.00623833Q5.05186 0 5.179 0L5.179 0Z" transform="translate(10.44 15.64)" id="Rectangle" fill="#498DBC" fill-opacity="0.3" fill-rule="evenodd" stroke="none" />
    <path d="M3.919 0L37.251 0Q37.4435 0 37.6351 0.0188711Q37.8267 0.0377421 38.0156 0.0753025Q38.2044 0.112863 38.3886 0.168751Q38.5729 0.224639 38.7507 0.298316Q38.9286 0.371993 39.0984 0.462751Q39.2682 0.553508 39.4283 0.660471Q39.5884 0.767433 39.7372 0.889572Q39.886 1.01171 40.0221 1.14785Q40.1583 1.28399 40.2804 1.43281Q40.4026 1.58164 40.5095 1.74172Q40.6165 1.9018 40.7072 2.0716Q40.798 2.24139 40.8717 2.41926Q40.9454 2.59714 41.0013 2.78137Q41.0571 2.96561 41.0947 3.15444Q41.1323 3.34327 41.1511 3.53487Q41.17 3.72647 41.17 3.919L41.17 26.591Q41.17 26.7835 41.1511 26.9751Q41.1323 27.1667 41.0947 27.3556Q41.0571 27.5444 41.0012 27.7286Q40.9454 27.9129 40.8717 28.0907Q40.798 28.2686 40.7072 28.4384Q40.6165 28.6082 40.5095 28.7683Q40.4026 28.9284 40.2804 29.0772Q40.1583 29.226 40.0221 29.3622Q39.886 29.4983 39.7372 29.6204Q39.5884 29.7426 39.4283 29.8495Q39.2682 29.9565 39.0984 30.0472Q38.9286 30.138 38.7507 30.2117Q38.5729 30.2854 38.3886 30.3412Q38.2044 30.3971 38.0156 30.4347Q37.8267 30.4723 37.6351 30.4911Q37.4435 30.51 37.251 30.51L3.919 30.51Q3.72647 30.51 3.53487 30.4911Q3.34327 30.4723 3.15444 30.4347Q2.96561 30.3971 2.78137 30.3412Q2.59714 30.2854 2.41926 30.2117Q2.24139 30.138 2.0716 30.0472Q1.9018 29.9565 1.74172 29.8495Q1.58164 29.7426 1.43281 29.6204Q1.28399 29.4983 1.14785 29.3622Q1.01171 29.226 0.889572 29.0772Q0.767433 28.9284 0.660471 28.7683Q0.553508 28.6082 0.462751 28.4384Q0.371993 28.2686 0.298316 28.0907Q0.224639 27.9129 0.168751 27.7286Q0.112863 27.5444 0.0753025 27.3556Q0.0377421 27.1667 0.0188711 26.9751Q0 26.7835 0 26.591L0 3.919Q0 3.72647 0.0188711 3.53487Q0.0377421 3.34327 0.0753025 3.15444Q0.112863 2.96561 0.168751 2.78137Q0.224639 2.59714 0.298316 2.41926Q0.371993 2.24139 0.462751 2.0716Q0.553508 1.9018 0.660471 1.74172Q0.767433 1.58164 0.889572 1.43281Q1.01171 1.28399 1.14785 1.14785Q1.28399 1.01171 1.43281 0.889572Q1.58164 0.767433 1.74172 0.660471Q1.9018 0.553508 2.0716 0.462751Q2.24139 0.371993 2.41926 0.298316Q2.59714 0.224639 2.78137 0.168751Q2.96561 0.112863 3.15444 0.0753025Q3.34327 0.0377421 3.53487 0.0188711Q3.72647 0 3.919 0L3.919 0Z" transform="translate(18.15 25.84)" id="Rectangle" fill="#498DBC" fill-opacity="0.3" fill-rule="evenodd" stroke="none" />
    <path d="M1.7 3.4C2.63888 3.4 3.4 2.63888 3.4 1.7C3.4 0.761116 2.63888 0 1.7 0C0.761116 0 0 0.761116 0 1.7C0 2.63888 0.761116 3.4 1.7 3.4Z" transform="translate(11.24 6.69)" id="Oval" fill="#FFBA00" fill-rule="evenodd" stroke="none" />
    <path d="M1.7 3.4C2.63888 3.4 3.4 2.63888 3.4 1.7C3.4 0.761116 2.63888 0 1.7 0C0.761116 0 0 0.761116 0 1.7C0 2.63888 0.761116 3.4 1.7 3.4Z" transform="translate(18.15 6.69)" id="Oval" fill="#FFBA00" fill-rule="evenodd" stroke="none" />
    <path d="M1.7 3.4C2.63888 3.4 3.4 2.63888 3.4 1.7C3.4 0.761116 2.63888 0 1.7 0C0.761116 0 0 0.761116 0 1.7C0 2.63888 0.761116 3.4 1.7 3.4Z" transform="translate(25.06 6.69)" id="Oval" fill="#FFBA00" fill-rule="evenodd" stroke="none" />
    <path d="M28.65 57.3C44.473 57.3 57.3 44.473 57.3 28.65C57.3 12.827 44.473 0 28.65 0C12.827 0 0 12.827 0 28.65C0 44.473 12.827 57.3 28.65 57.3Z" transform="translate(65.51 25.84)" id="Oval" fill="url(#gradient_3)" fill-rule="evenodd" stroke="none" />
    <path d="M19.68 39.36C30.549 39.36 39.36 30.549 39.36 19.68C39.36 8.81104 30.549 0 19.68 0C8.81104 0 0 8.81104 0 19.68C0 30.549 8.81104 39.36 19.68 39.36Z" transform="translate(74.48 34.81)" id="Oval" fill="#F15A24" fill-opacity="0.5" fill-rule="evenodd" stroke="none" />
    <path d="M7.72198 9.46205C7.72198 11.3121 7.72198 13.1521 7.72198 15.0021C7.77081 16.8166 6.50296 18.4014 4.72198 18.7521C3.58386 19.0443 2.37454 18.7907 1.44976 18.0658C0.524979 17.3408 -0.0100781 16.227 0.0019816 15.0521C0.0019816 11.3121 0.0019816 7.57205 0.0019816 3.84205C-0.0572774 2.03021 1.21871 0.447985 3.00198 0.122053C4.81022 -0.351746 6.68923 0.589901 7.39198 2.32205C7.6115 2.86186 7.72359 3.43932 7.72198 4.02205C7.72198 5.80205 7.72198 7.63205 7.72198 9.46205Z" transform="translate(90.278015 49.677948)" id="Path" fill="#FFFFFF" fill-rule="evenodd" stroke="none" />
    <path d="M3.80999 7.65995C1.69608 7.6489 -0.00915718 5.92726 3.70054e-05 3.81334C0.00923119 1.69942 1.72938 -0.00731878 3.8433 2.36015e-05C5.95723 0.00736598 7.66548 1.72601 7.65999 3.83995C7.64351 5.95452 5.92462 7.66001 3.80999 7.65995L3.80999 7.65995Z" transform="translate(90.34001 40.45005)" id="Path" fill="#FFFFFF" fill-rule="evenodd" stroke="none" />
    <path d="M2.439 0L38.731 0Q38.8508 0 38.9701 0.0117445Q39.0893 0.0234889 39.2068 0.0468647Q39.3243 0.0702405 39.439 0.105023Q39.5537 0.139805 39.6644 0.185658Q39.7751 0.231511 39.8807 0.287994Q39.9864 0.344477 40.086 0.411046Q40.1857 0.477614 40.2783 0.553628Q40.3709 0.629641 40.4556 0.714367Q40.5404 0.799092 40.6164 0.891715Q40.6924 0.984337 40.7589 1.08396Q40.8255 1.18359 40.882 1.28926Q40.9385 1.39494 40.9843 1.50564Q41.0302 1.61633 41.065 1.731Q41.0998 1.84566 41.1231 1.96317Q41.1465 2.08069 41.1583 2.19994Q41.17 2.31918 41.17 2.439L41.17 2.441Q41.17 2.56082 41.1583 2.68006Q41.1465 2.79931 41.1231 2.91683Q41.0998 3.03434 41.065 3.149Q41.0302 3.26367 40.9843 3.37436Q40.9385 3.48506 40.882 3.59074Q40.8255 3.69641 40.7589 3.79604Q40.6924 3.89566 40.6164 3.98828Q40.5404 4.08091 40.4556 4.16563Q40.3709 4.25036 40.2783 4.32637Q40.1857 4.40239 40.086 4.46895Q39.9864 4.53552 39.8807 4.59201Q39.7751 4.64849 39.6644 4.69434Q39.5537 4.7402 39.439 4.77498Q39.3243 4.80976 39.2068 4.83313Q39.0893 4.85651 38.9701 4.86826Q38.8508 4.88 38.731 4.88L2.439 4.88Q2.31918 4.88 2.19994 4.86826Q2.08069 4.85651 1.96317 4.83314Q1.84566 4.80976 1.731 4.77498Q1.61633 4.7402 1.50564 4.69434Q1.39494 4.64849 1.28926 4.59201Q1.18359 4.53552 1.08396 4.46895Q0.984337 4.40239 0.891715 4.32637Q0.799092 4.25036 0.714367 4.16563Q0.629641 4.08091 0.553628 3.98829Q0.477614 3.89566 0.411046 3.79604Q0.344477 3.69641 0.287994 3.59074Q0.231511 3.48506 0.185658 3.37436Q0.139805 3.26367 0.105023 3.149Q0.0702405 3.03434 0.0468647 2.91683Q0.0234889 2.79931 0.0117445 2.68006Q0 2.56082 0 2.441L0 2.439Q0 2.31918 0.0117445 2.19994Q0.0234889 2.08069 0.0468647 1.96317Q0.0702405 1.84566 0.105023 1.731Q0.139805 1.61633 0.185658 1.50564Q0.231511 1.39494 0.287994 1.28926Q0.344477 1.18359 0.411046 1.08396Q0.477614 0.984337 0.553628 0.891715Q0.629641 0.799092 0.714367 0.714367Q0.799092 0.629641 0.891715 0.553628Q0.984337 0.477614 1.08396 0.411046Q1.18359 0.344477 1.28926 0.287994Q1.39494 0.231511 1.50564 0.185658Q1.61633 0.139805 1.731 0.105023Q1.84566 0.0702405 1.96317 0.0468647Q2.08069 0.0234889 2.19994 0.0117445Q2.31918 0 2.439 0Z" transform="translate(18.15 61.67)" id="Rectangle" fill="#498DBC" fill-opacity="0.3" fill-rule="evenodd" stroke="none" />
    <path d="M2.439 0L38.731 0Q38.8508 0 38.9701 0.0117445Q39.0893 0.0234889 39.2068 0.0468647Q39.3243 0.0702405 39.439 0.105023Q39.5537 0.139805 39.6644 0.185658Q39.7751 0.231511 39.8807 0.287994Q39.9864 0.344477 40.086 0.411046Q40.1857 0.477614 40.2783 0.553628Q40.3709 0.629641 40.4556 0.714367Q40.5404 0.799092 40.6164 0.891715Q40.6924 0.984337 40.7589 1.08396Q40.8255 1.18359 40.882 1.28926Q40.9385 1.39494 40.9843 1.50564Q41.0302 1.61633 41.065 1.731Q41.0998 1.84566 41.1231 1.96317Q41.1465 2.08069 41.1583 2.19994Q41.17 2.31918 41.17 2.439L41.17 2.441Q41.17 2.56082 41.1583 2.68006Q41.1465 2.79931 41.1231 2.91683Q41.0998 3.03434 41.065 3.149Q41.0302 3.26367 40.9843 3.37436Q40.9385 3.48506 40.882 3.59074Q40.8255 3.69641 40.7589 3.79604Q40.6924 3.89566 40.6164 3.98828Q40.5404 4.08091 40.4556 4.16563Q40.3709 4.25036 40.2783 4.32637Q40.1857 4.40239 40.086 4.46895Q39.9864 4.53552 39.8807 4.59201Q39.7751 4.64849 39.6644 4.69434Q39.5537 4.7402 39.439 4.77498Q39.3243 4.80976 39.2068 4.83313Q39.0893 4.85651 38.9701 4.86826Q38.8508 4.88 38.731 4.88L2.439 4.88Q2.31918 4.88 2.19994 4.86826Q2.08069 4.85651 1.96317 4.83314Q1.84566 4.80976 1.731 4.77498Q1.61633 4.7402 1.50564 4.69434Q1.39494 4.64849 1.28926 4.59201Q1.18359 4.53552 1.08396 4.46895Q0.984337 4.40239 0.891715 4.32637Q0.799092 4.25036 0.714367 4.16563Q0.629641 4.08091 0.553628 3.98829Q0.477614 3.89566 0.411046 3.79604Q0.344477 3.69641 0.287994 3.59074Q0.231511 3.48506 0.185658 3.37436Q0.139805 3.26367 0.105023 3.149Q0.0702405 3.03434 0.0468647 2.91683Q0.0234889 2.79931 0.0117445 2.68006Q0 2.56082 0 2.441L0 2.439Q0 2.31918 0.0117445 2.19994Q0.0234889 2.08069 0.0468647 1.96317Q0.0702405 1.84566 0.105023 1.731Q0.139805 1.61633 0.185658 1.50564Q0.231511 1.39494 0.287994 1.28926Q0.344477 1.18359 0.411046 1.08396Q0.477614 0.984337 0.553628 0.891715Q0.629641 0.799092 0.714367 0.714367Q0.799092 0.629641 0.891715 0.553628Q0.984337 0.477614 1.08396 0.411046Q1.18359 0.344477 1.28926 0.287994Q1.39494 0.231511 1.50564 0.185658Q1.61633 0.139805 1.731 0.105023Q1.84566 0.0702405 1.96317 0.0468647Q2.08069 0.0234889 2.19994 0.0117445Q2.31918 0 2.439 0Z" transform="translate(18.15 69.97)" id="Rectangle" fill="#498DBC" fill-opacity="0.3" fill-rule="evenodd" stroke="none" />
    <path d="M1.959 0L24.761 0Q24.8572 0 24.953 0.00943312Q25.0488 0.0188662 25.1432 0.0376416Q25.2376 0.056417 25.3297 0.0843539Q25.4218 0.112291 25.5107 0.14912Q25.5996 0.185949 25.6845 0.231316Q25.7693 0.276683 25.8494 0.330151Q25.9294 0.383619 26.0038 0.444672Q26.0782 0.505726 26.1462 0.573778Q26.2143 0.641829 26.2753 0.716224Q26.3364 0.790618 26.3898 0.870638Q26.4433 0.950658 26.4887 1.03553Q26.534 1.12041 26.5709 1.20932Q26.6077 1.29824 26.6356 1.39033Q26.6636 1.48243 26.6824 1.57682Q26.7011 1.67121 26.7106 1.76698Q26.72 1.86276 26.72 1.959L26.72 2.921Q26.72 3.01724 26.7106 3.11302Q26.7011 3.20879 26.6824 3.30318Q26.6636 3.39757 26.6356 3.48967Q26.6077 3.58176 26.5709 3.67068Q26.534 3.75959 26.4887 3.84447Q26.4433 3.92934 26.3898 4.00936Q26.3364 4.08938 26.2753 4.16378Q26.2143 4.23817 26.1462 4.30622Q26.0782 4.37427 26.0038 4.43533Q25.9294 4.49638 25.8494 4.54985Q25.7693 4.60332 25.6845 4.64868Q25.5996 4.69405 25.5107 4.73088Q25.4218 4.76771 25.3297 4.79565Q25.2376 4.82358 25.1432 4.84236Q25.0488 4.86113 24.953 4.87057Q24.8572 4.88 24.761 4.88L1.959 4.88Q1.86276 4.88 1.76698 4.87057Q1.67121 4.86113 1.57682 4.84236Q1.48243 4.82358 1.39033 4.79565Q1.29824 4.76771 1.20932 4.73088Q1.12041 4.69405 1.03553 4.64868Q0.950658 4.60332 0.870638 4.54985Q0.790618 4.49638 0.716224 4.43533Q0.641829 4.37427 0.573778 4.30622Q0.505726 4.23817 0.444672 4.16378Q0.383619 4.08938 0.330151 4.00936Q0.276683 3.92934 0.231316 3.84447Q0.185949 3.75959 0.14912 3.67068Q0.112291 3.58176 0.0843539 3.48967Q0.056417 3.39757 0.0376416 3.30318Q0.0188662 3.20879 0.00943312 3.11302Q0 3.01724 0 2.921L0 1.959Q0 1.86276 0.00943312 1.76698Q0.0188662 1.67121 0.0376416 1.57682Q0.056417 1.48243 0.0843539 1.39033Q0.112291 1.29824 0.14912 1.20932Q0.185949 1.12041 0.231316 1.03553Q0.276683 0.950658 0.330151 0.870638Q0.383619 0.790618 0.444672 0.716224Q0.505726 0.641829 0.573778 0.573778Q0.641829 0.505726 0.716224 0.444672Q0.790618 0.383619 0.870638 0.330151Q0.950658 0.276683 1.03553 0.231316Q1.12041 0.185949 1.20932 0.14912Q1.29824 0.112291 1.39033 0.0843539Q1.48243 0.056417 1.57682 0.0376416Q1.67121 0.0188662 1.76698 0.00943312Q1.86276 0 1.959 0L1.959 0Z" transform="translate(18.15 78.27)" id="Rectangle" fill="#498DBC" fill-opacity="0.3" fill-rule="evenodd" stroke="none" />
    <path d="M11.8083 3.16009C11.8042 1.88513 12.5692 0.733463 13.7459 0.24275C14.9226 -0.247962 16.2792 0.0190645 17.1821 0.919166C18.0851 1.81927 18.3564 3.17492 17.8695 4.35322C17.3825 5.53153 16.2333 6.30008 14.9583 6.30009C13.2225 6.3001 11.8138 4.89588 11.8083 3.16009ZM18.0883 12.9401C17.8749 12.6106 17.5211 12.3984 17.1299 12.3651C16.7388 12.3319 16.3543 12.4814 16.0883 12.7701L14.7583 14.1201C14.4867 14.4143 14.097 14.5704 13.6974 14.5452C13.2978 14.52 12.9308 14.3161 12.6983 13.9901L7.2683 6.89009C7.09854 6.56553 6.74903 6.37621 6.38444 6.41135C6.01986 6.4465 5.71293 6.69908 5.6083 7.05009L0.168297 17.7401C-0.0419457 18.0314 -0.0563996 18.4206 0.131654 18.7267C0.319707 19.0329 0.673382 19.1959 1.0283 19.1401L20.8483 19.1401C21.7183 19.1401 22.0183 18.5701 21.5183 17.8501L18.0883 12.9401Z" transform="translate(27.831703 31.519909)" id="Shape" fill="#FFFFFF" stroke="none" />
  </g>
</svg>