<svg xmlns="http://www.w3.org/2000/svg" viewBox="0 0 104.88 24.63"><defs><style>.cls-1{fill:#414f7b;fill-rule:evenodd;}</style></defs><g id="Layer_2" data-name="Layer 2"><g id="Layer_1-2" data-name="Layer 1"><path class="cls-1" d="M81.76,17.64a1.09,1.09,0,0,0-1,1c-.09.59.23,1,.74,1a1.13,1.13,0,0,0,1.06-1,.78.78,0,0,0-.76-1Zm7.36-5.71a3.15,3.15,0,0,0-2.74,1.48l.2-1.41h-1.7l-1.09,7.54H85.5l.53-3.7a2.29,2.29,0,0,1,2.16-2.17c1,0,1.47.64,1.31,1.7l-.6,4.17h1.72l.68-4.7c.26-1.79-.56-2.91-2.18-2.91Zm7.21,0a4.21,4.21,0,0,0-4.13,3.84c-.33,2.27.88,3.82,3.06,3.82a4.42,4.42,0,0,0,3.15-1.29l-.78-1a2.92,2.92,0,0,1-2,.84,1.67,1.67,0,0,1-1.76-1.72h5.19c.56-2.73-.25-4.46-2.72-4.46ZM94,15.19a2.26,2.26,0,0,1,2.15-1.82,1.46,1.46,0,0,1,1.53,1.82Zm9.84,2.51a2.69,2.69,0,0,1-1,.31c-.46,0-.7-.24-.6-1l.49-3.4h2l.19-1.34h-2l.3-2.07h-1.7l-.3,2.07h-1L100,13.65h1l-.54,3.72c-.22,1.55.6,2.26,1.74,2.26a3.64,3.64,0,0,0,1.84-.55Z"/><path class="cls-1" d="M1.32,9.56a1.33,1.33,0,1,1,0,2.65,1.33,1.33,0,0,1,0-2.65ZM14.54,5.87a6.64,6.64,0,0,1,3.91-1.36,5.77,5.77,0,0,1,4.38,1.93,7.1,7.1,0,0,1,1.37,5.81,8.85,8.85,0,0,1-6.05,7.54,7.28,7.28,0,0,1-2.06.3,4.52,4.52,0,0,1-3.91-1.93L12,19.44a.25.25,0,0,1-.24.21H8.7a.22.22,0,0,1-.16-.07.2.2,0,0,1,0-.18L9.55,12h-4a1.14,1.14,0,0,1-1.14-1.13h0A1.14,1.14,0,0,1,5.53,9.75h8.61A5.26,5.26,0,0,0,13,12.3c-.31,2.16.77,4.17,3.1,4.17a4.71,4.71,0,0,0,4.45-4.2v0c.3-2.12-.92-4.11-3.16-4.11H7.59A1.14,1.14,0,0,1,6.46,7h0A1.14,1.14,0,0,1,7.59,5.87h2.85L11.26.21A.24.24,0,0,1,11.5,0h3.17a.19.19,0,0,1,.16.07.2.2,0,0,1,.05.18l-.81,5.62ZM34.1,18.35A5.34,5.34,0,0,1,30,20.09c-3.94,0-5-2.89-4.51-6.31l1.24-8.61A.26.26,0,0,1,26.93,5H30.1a.23.23,0,0,1,.17.08.19.19,0,0,1,0,.17L29.2,13c-.27,1.84,0,3.5,2.15,3.49S34.4,15,34.67,13l1.14-7.85A.26.26,0,0,1,36.05,5h3.17a.23.23,0,0,1,.17.08.19.19,0,0,1,0,.17l-2,14.24a.25.25,0,0,1-.25.21h-3a.22.22,0,0,1-.16-.07.2.2,0,0,1,0-.18l.15-1ZM45,6.24a5.33,5.33,0,0,1,4.12-1.73c3.91,0,5,2.87,4.49,6.34l-1.24,8.59a.26.26,0,0,1-.25.21H48.9a.24.24,0,0,1-.16-.07.23.23,0,0,1-.05-.18l1.12-7.73c.26-1.8.06-3.52-2.13-3.51s-3,1.51-3.3,3.42l-1.13,7.86a.26.26,0,0,1-.25.21H39.83a.24.24,0,0,1-.16-.07.23.23,0,0,1-.05-.18L41.68,5.17A.25.25,0,0,1,41.92,5h3a.21.21,0,0,1,.16.08.2.2,0,0,1,0,.17c0,.35-.1.69-.16,1Zm14.89,0A5.33,5.33,0,0,1,64,4.51c3.91,0,5,2.87,4.48,6.34l-1.23,8.59a.26.26,0,0,1-.25.21H63.79a.24.24,0,0,1-.16-.07.23.23,0,0,1-.05-.18l1.12-7.73c.26-1.8.06-3.52-2.13-3.51s-3,1.51-3.3,3.42l-1.14,7.86a.24.24,0,0,1-.24.21H54.72a.24.24,0,0,1-.16-.07.23.23,0,0,1-.05-.18L56.56,5.17A.27.27,0,0,1,56.81,5h3A.21.21,0,0,1,60,5a.2.2,0,0,1,0,.17c0,.35-.1.69-.16,1Zm12.4,12.62-3-13.61a.23.23,0,0,1,0-.21A.25.25,0,0,1,69.47,5h3.39a.21.21,0,0,1,.21.17l1.74,8.81L79.07,5.1A.25.25,0,0,1,79.29,5h3.39a.19.19,0,0,1,.18.11.22.22,0,0,1,0,.21L73.1,24.49a.23.23,0,0,1-.22.14H69.5a.21.21,0,0,1-.19-.11.22.22,0,0,1,0-.22Z"/></g></g></svg>