<?xml version="1.0" encoding="utf-8"?>
<svg width="112px" height="112px" viewBox="0 0 112 112" version="1.1" xmlns:xlink="http://www.w3.org/1999/xlink" xmlns="http://www.w3.org/2000/svg">
  <desc>Created with Lunacy</desc>
  <defs>
    <linearGradient x1="0.5" y1="1.3611112" x2="0.5" y2="-0.21275456" id="gradient_1">
      <stop offset="0" stop-color="#002649" />
      <stop offset="0.32" stop-color="#042A4F" />
      <stop offset="0.75" stop-color="#0F3460" />
      <stop offset="1" stop-color="#183D6D" />
    </linearGradient>
    <linearGradient x1="0.49999997" y1="1.1272535" x2="0.49999997" y2="-0.57486737" id="gradient_2">
      <stop offset="0" stop-color="#FF2A64" />
      <stop offset="0.08" stop-color="#FF465E" />
      <stop offset="0.18" stop-color="#FF6657" />
      <stop offset="0.29" stop-color="#FF8152" />
      <stop offset="0.42" stop-color="#FF954D" />
      <stop offset="0.56" stop-color="#FFA44A" />
      <stop offset="0.73" stop-color="#FFAC49" />
      <stop offset="1" stop-color="#FFAF48" />
    </linearGradient>
  </defs>
  <g id="Icon-2">
    <path d="M55.98 111.96C86.8969 111.96 111.96 86.8969 111.96 55.98C111.96 25.0631 86.8969 0 55.98 0C25.0631 0 0 25.0631 0 55.98C0 86.8969 25.0631 111.96 55.98 111.96Z" id="Oval" fill="url(#gradient_1)" fill-rule="evenodd" stroke="none" />
    <path d="M47.17 8.66214e-06C21.1298 -0.0110347 0.0110536 21.0898 8.66459e-06 47.13C-0.0110362 73.1702 21.0898 94.289 47.13 94.3C73.1702 94.3111 94.289 73.2102 94.3 47.17C94.289 21.1389 73.2011 0.0331037 47.17 8.66214e-06ZM80.41 24.81L71.27 24.81C69.6984 19.7656 67.2696 15.0297 64.09 10.81C70.6948 13.9167 76.3346 18.7548 80.41 24.81L80.41 24.81ZM43.61 9.02001L43.61 24.81L30.61 24.81C33.65 16.71 38.31 10.86 43.61 9.02001ZM50.68 9.02001C55.98 10.86 60.68 16.71 63.68 24.81L50.68 24.81L50.68 9.02001ZM30.17 10.82C26.9983 15.0432 24.5733 19.7783 23 24.82L13.87 24.82C17.9433 18.7705 23.575 13.9335 30.17 10.82L30.17 10.82ZM10.09 31.87L84.17 31.87C88.2234 41.6534 88.2234 52.6466 84.17 62.43L10.09 62.43C6.04532 52.6448 6.04532 41.6552 10.09 31.87ZM43.61 85.29C38.31 83.45 33.61 77.59 30.61 69.5L43.61 69.5L43.61 85.29ZM50.68 85.29L50.68 69.5L63.68 69.5C60.64 77.59 55.98 83.45 50.68 85.29ZM13.87 69.5L23.03 69.5C24.5988 74.5417 27.0205 79.277 30.19 83.5C23.5868 80.3907 17.9477 75.5532 13.87 69.5ZM64.11 83.5C67.2795 79.277 69.7012 74.5417 71.27 69.5L80.41 69.5C76.3342 75.5374 70.7023 80.3609 64.11 83.46L64.11 83.5Z" transform="translate(8.83 8.829991)" id="Shape" fill="url(#gradient_2)" stroke="none" />
    <path d="M0.550183 15.3742L6.43018 15.3742C10.8369 15.3742 13.1135 13.3742 13.2602 9.37424C13.2602 8.96424 13.2602 8.37424 13.2602 7.70424C13.2602 7.03424 13.2602 6.43424 13.2602 6.01424C13.3093 4.32627 12.619 2.70099 11.3702 1.56424C9.9301 0.453064 8.13568 -0.0976996 6.32018 0.0142443L0.550183 0.0142443C0.398924 0.0123836 0.25382 0.0740529 0.150183 0.184244C0.0502196 0.293091 -0.00356159 0.436507 0.000183228 0.584244L0.000183228 14.8242C0.000183228 15.128 0.246427 15.3742 0.550183 15.3742ZM4.09018 3.30424L6.17018 3.30424C6.92852 3.2502 7.6791 3.4861 8.27018 3.96424C8.81542 4.51695 9.11157 5.26816 9.09018 6.04424C9.09018 6.45424 9.09018 7.04424 9.09018 7.67424C9.09018 8.30424 9.09018 8.89424 9.09018 9.31424C9.12864 10.0803 8.87892 10.8331 8.39018 11.4242C7.82272 11.9097 7.08431 12.1475 6.34018 12.0842L4.09018 12.0842L4.09018 3.30424Z" transform="translate(33.909817 48.285755)" id="Shape" fill="#FFFFFF" stroke="none" />
    <path d="M0.550183 15.4108L3.30018 15.4108C3.44792 15.4145 3.59134 15.3608 3.70018 15.2608C3.81143 15.1579 3.87331 15.0123 3.87018 14.8608L3.87018 7.1308L9.03018 15.0008C9.18022 15.2657 9.46607 15.424 9.77018 15.4108L12.3002 15.4108C12.4506 15.4192 12.597 15.3606 12.7002 15.2508C12.8008 15.1383 12.8544 14.9916 12.8502 14.8408L12.8502 0.610795C12.8539 0.463058 12.8001 0.319642 12.7002 0.210795C12.5989 0.0973076 12.4522 0.0349687 12.3002 0.0407955L9.51018 0.0407955C9.35817 0.0349687 9.21149 0.0973076 9.11018 0.210795C9.01022 0.319642 8.95644 0.463058 8.96018 0.610795L8.96018 8.6108L3.77018 0.420796C3.62459 0.150349 3.33702 -0.0128665 3.03018 0.000795492L0.550183 0.000795492C0.398678 -0.00232756 0.253082 0.0595507 0.150183 0.170795C0.0502196 0.279642 -0.00356159 0.423058 0.000183228 0.570795L0.000183228 14.8608C0.000183228 15.1646 0.246427 15.4108 0.550183 15.4108L0.550183 15.4108Z" transform="translate(49.699818 48.249203)" id="Path" fill="#FFFFFF" fill-rule="evenodd" stroke="none" />
    <path d="M3.08007 15.2919C4.23547 15.7291 5.46519 15.9364 6.70007 15.9019C7.88259 15.924 9.05901 15.7273 10.1701 15.3219C11.0992 14.9898 11.9191 14.4086 12.5401 13.6419C13.1206 12.894 13.4245 11.9683 13.4001 11.0219C13.4306 10.23 13.2253 9.44689 12.8101 8.77189C12.3658 8.12196 11.7397 7.61756 11.0101 7.32189C9.95815 6.88102 8.85685 6.56876 7.73007 6.39189C6.88185 6.25126 6.05512 6.00257 5.27007 5.65189C4.8823 5.48603 4.61916 5.11803 4.58762 4.69745C4.55608 4.27688 4.76138 3.87374 5.12007 3.65189C5.55464 3.41577 6.04624 3.30499 6.54007 3.33189C7.01601 3.3135 7.48843 3.42039 7.91007 3.64189C8.22616 3.80789 8.46873 4.08612 8.59007 4.42189C8.74435 4.68123 9.0286 4.83487 9.33007 4.82189L12.4101 4.82189C12.5347 4.82294 12.6542 4.77225 12.7401 4.68189C12.8264 4.59002 12.8731 4.4679 12.8701 4.34189C12.8144 3.60905 12.5352 2.91095 12.0701 2.34189C11.4862 1.62014 10.739 1.0477 9.89007 0.671893C8.83614 0.205333 7.69239 -0.0234167 6.54007 0.00189306C5.43488 -0.0182206 4.33678 0.182361 3.31007 0.591893C2.45031 0.934639 1.70255 1.5093 1.15007 2.25189C0.650084 2.96254 0.387574 3.81307 0.400074 4.68189C0.332138 5.85386 0.816947 6.99002 1.71007 7.75189C2.89479 8.60195 4.26681 9.15419 5.71007 9.36189C6.62007 9.55189 7.31007 9.72189 7.79007 9.87189C8.17513 9.97632 8.5355 10.1565 8.85007 10.4019C9.06479 10.5956 9.18513 10.8728 9.18007 11.1619C9.1755 11.5902 8.92707 11.9784 8.54007 12.1619C7.97341 12.4333 7.34738 12.5571 6.72007 12.5219C6.16028 12.5442 5.60368 12.4273 5.10007 12.1819C4.73054 11.9807 4.42546 11.6791 4.22007 11.3119C4.11369 11.1899 3.98884 11.0853 3.85007 11.0019C3.71563 10.9399 3.56783 10.9124 3.42007 10.9219L0.480074 10.9219C0.354068 10.9189 0.231944 10.9656 0.140074 11.0519C0.0486829 11.137 -0.00221454 11.257 7.39806e-05 11.3819C0.0328674 12.1789 0.316324 12.9453 0.810074 13.5719C1.39814 14.3391 2.18239 14.9333 3.08007 15.2919Z" transform="translate(64.649925 47.978107)" id="Path" fill="#FFFFFF" fill-rule="evenodd" stroke="none" />
  </g>
</svg>