<?xml version="1.0" encoding="utf-8"?>
<svg width="150px" height="112px" viewBox="0 0 150 112" version="1.1" xmlns:xlink="http://www.w3.org/1999/xlink" xmlns="http://www.w3.org/2000/svg">
  <desc>Created with Lunacy</desc>
  <defs>
    <linearGradient x1="0.5" y1="1.2052268" x2="0.5" y2="0.0120786205" id="gradient_1">
      <stop offset="0" stop-color="#002649" />
      <stop offset="0.32" stop-color="#042A4F" />
      <stop offset="0.75" stop-color="#0F3460" />
      <stop offset="1" stop-color="#183D6D" />
    </linearGradient>
    <linearGradient x1="0.49989277" y1="1.1892241" x2="0.49989277" y2="-0.3211024" id="gradient_2">
      <stop offset="0" stop-color="#FF2A64" />
      <stop offset="0.08" stop-color="#FF465E" />
      <stop offset="0.18" stop-color="#FF6657" />
      <stop offset="0.29" stop-color="#FF8152" />
      <stop offset="0.42" stop-color="#FF954D" />
      <stop offset="0.56" stop-color="#FFA44A" />
      <stop offset="0.73" stop-color="#FFAC49" />
      <stop offset="1" stop-color="#FFAF48" />
    </linearGradient>
    <linearGradient x1="0.5" y1="2.489664" x2="0.5" y2="-1" id="gradient_3">
      <stop offset="0" stop-color="#002649" />
      <stop offset="0.23" stop-color="#082E55" />
      <stop offset="0.68" stop-color="#143967" />
      <stop offset="1" stop-color="#183D6D" />
    </linearGradient>
    <linearGradient x1="0.4997162" y1="0.8445792" x2="0.4997162" y2="-2.292646" id="gradient_4">
      <stop offset="0" stop-color="#002649" />
      <stop offset="0.32" stop-color="#042A4F" />
      <stop offset="0.75" stop-color="#0F3460" />
      <stop offset="1" stop-color="#183D6D" />
    </linearGradient>
  </defs>
  <g id="Icon-1">
    <path d="M9.399 0L140.601 0Q140.832 0 141.062 0.0113215Q141.293 0.022643 141.522 0.0452587Q141.752 0.0678745 141.98 0.10173Q142.208 0.135585 142.435 0.180599Q142.661 0.225613 142.885 0.281676Q143.109 0.33774 143.329 0.404718Q143.55 0.471696 143.767 0.549427Q143.985 0.627159 144.198 0.715456Q144.411 0.803754 144.62 0.902404Q144.828 1.00106 145.032 1.10982Q145.235 1.21859 145.433 1.33721Q145.631 1.45583 145.823 1.58402Q146.015 1.7122 146.2 1.84965Q146.385 1.9871 146.564 2.13347Q146.742 2.27985 146.913 2.4348Q147.084 2.58975 147.247 2.7529Q147.41 2.91606 147.565 3.08702Q147.72 3.25798 147.867 3.43634Q148.013 3.6147 148.15 3.80002Q148.288 3.98535 148.416 4.17719Q148.544 4.36904 148.663 4.56695Q148.781 4.76485 148.89 4.96834Q148.999 5.17183 149.098 5.38041Q149.196 5.58899 149.285 5.80216Q149.373 6.01533 149.451 6.23257Q149.528 6.44982 149.595 6.67061Q149.662 6.89141 149.718 7.11523Q149.774 7.33905 149.819 7.56534Q149.864 7.79164 149.898 8.01988Q149.932 8.24811 149.955 8.47774Q149.977 8.70736 149.989 8.93781Q150 9.16827 150 9.399L150 81.671Q150 81.9017 149.989 82.1322Q149.977 82.3626 149.955 82.5923Q149.932 82.8219 149.898 83.0501Q149.864 83.2783 149.819 83.5046Q149.774 83.7309 149.718 83.9548Q149.662 84.1786 149.595 84.3994Q149.528 84.6202 149.451 84.8374Q149.373 85.0547 149.285 85.2678Q149.196 85.481 149.098 85.6896Q148.999 85.8982 148.89 86.1016Q148.781 86.3051 148.663 86.503Q148.544 86.7009 148.416 86.8928Q148.288 87.0846 148.15 87.27Q148.013 87.4553 147.867 87.6337Q147.72 87.812 147.565 87.983Q147.41 88.1539 147.247 88.3171Q147.084 88.4802 146.913 88.6352Q146.742 88.7901 146.564 88.9365Q146.385 89.0829 146.2 89.2203Q146.015 89.3578 145.823 89.486Q145.631 89.6142 145.433 89.7328Q145.235 89.8514 145.032 89.9602Q144.828 90.0689 144.62 90.1676Q144.411 90.2662 144.198 90.3545Q143.985 90.4428 143.767 90.5206Q143.55 90.5983 143.329 90.6653Q143.109 90.7323 142.885 90.7883Q142.661 90.8444 142.435 90.8894Q142.208 90.9344 141.98 90.9683Q141.752 91.0021 141.522 91.0247Q141.293 91.0474 141.062 91.0587Q140.832 91.07 140.601 91.07L9.399 91.07Q9.16827 91.07 8.93781 91.0587Q8.70736 91.0474 8.47774 91.0247Q8.24811 91.0021 8.01988 90.9683Q7.79164 90.9344 7.56535 90.8894Q7.33905 90.8444 7.11523 90.7883Q6.89141 90.7323 6.67061 90.6653Q6.44982 90.5983 6.23257 90.5206Q6.01533 90.4428 5.80216 90.3545Q5.58899 90.2662 5.38041 90.1676Q5.17183 90.0689 4.96834 89.9602Q4.76485 89.8514 4.56695 89.7328Q4.36904 89.6142 4.17719 89.486Q3.98535 89.3578 3.80002 89.2203Q3.6147 89.0829 3.43634 88.9365Q3.25798 88.7901 3.08702 88.6352Q2.91606 88.4802 2.7529 88.3171Q2.58975 88.1539 2.4348 87.983Q2.27985 87.812 2.13347 87.6337Q1.9871 87.4553 1.84965 87.27Q1.7122 87.0846 1.58402 86.8928Q1.45583 86.7009 1.33721 86.503Q1.21859 86.3051 1.10982 86.1016Q1.00106 85.8982 0.902404 85.6896Q0.803754 85.481 0.715456 85.2678Q0.627159 85.0547 0.549427 84.8374Q0.471696 84.6202 0.404718 84.3994Q0.33774 84.1786 0.281676 83.9548Q0.225613 83.7309 0.180599 83.5046Q0.135585 83.2783 0.10173 83.0501Q0.0678745 82.8219 0.0452587 82.5923Q0.022643 82.3626 0.0113215 82.1322Q0 81.9017 0 81.671L0 9.399Q0 9.16827 0.0113215 8.93781Q0.022643 8.70736 0.0452587 8.47774Q0.0678745 8.24811 0.10173 8.01988Q0.135585 7.79164 0.180599 7.56535Q0.225613 7.33905 0.281676 7.11523Q0.33774 6.89141 0.404718 6.67061Q0.471696 6.44982 0.549427 6.23257Q0.627159 6.01533 0.715456 5.80216Q0.803754 5.58899 0.902404 5.38041Q1.00106 5.17183 1.10982 4.96834Q1.21859 4.76485 1.33721 4.56695Q1.45583 4.36904 1.58402 4.17719Q1.7122 3.98535 1.84965 3.80002Q1.9871 3.6147 2.13347 3.43634Q2.27985 3.25798 2.4348 3.08702Q2.58975 2.91606 2.7529 2.7529Q2.91606 2.58975 3.08702 2.4348Q3.25798 2.27985 3.43634 2.13347Q3.6147 1.9871 3.80002 1.84965Q3.98535 1.7122 4.17719 1.58402Q4.36904 1.45583 4.56695 1.33721Q4.76485 1.21859 4.96834 1.10982Q5.17183 1.00106 5.38041 0.902404Q5.58899 0.803754 5.80216 0.715456Q6.01533 0.627159 6.23257 0.549427Q6.44982 0.471696 6.67061 0.404718Q6.89141 0.33774 7.11523 0.281676Q7.33905 0.225613 7.56534 0.180599Q7.79164 0.135585 8.01988 0.10173Q8.24811 0.0678745 8.47774 0.0452587Q8.70736 0.022643 8.93781 0.0113215Q9.16827 0 9.399 0Z" id="Rectangle" fill="url(#gradient_1)" fill-rule="evenodd" stroke="none" />
    <path d="M7.969 0L124.661 0Q124.857 0 125.052 0.00959901Q125.247 0.019198 125.442 0.0383729Q125.637 0.0575478 125.83 0.0862524Q126.024 0.114957 126.216 0.153122Q126.408 0.191287 126.597 0.238821Q126.787 0.286355 126.974 0.343142Q127.161 0.39993 127.346 0.465835Q127.53 0.53174 127.711 0.606604Q127.891 0.681467 128.068 0.765109Q128.245 0.848751 128.418 0.940969Q128.59 1.03319 128.758 1.13376Q128.926 1.23433 129.088 1.34302Q129.251 1.4517 129.408 1.56824Q129.565 1.68477 129.716 1.80888Q129.868 1.93298 130.013 2.06436Q130.158 2.19574 130.296 2.33407Q130.434 2.4724 130.566 2.61735Q130.697 2.7623 130.821 2.91352Q130.945 3.06474 131.062 3.22187Q131.178 3.379 131.287 3.54166Q131.396 3.70432 131.496 3.87212Q131.597 4.03991 131.689 4.21244Q131.781 4.38497 131.865 4.56181Q131.949 4.73866 132.023 4.9194Q132.098 5.10013 132.164 5.28432Q132.23 5.46852 132.287 5.65572Q132.344 5.84293 132.391 6.03269Q132.439 6.22246 132.477 6.41432Q132.515 6.60619 132.544 6.7997Q132.572 6.99322 132.592 7.1879Q132.611 7.38259 132.62 7.57798Q132.63 7.77337 132.63 7.969L132.63 66.101Q132.63 66.2966 132.62 66.492Q132.611 66.6874 132.592 66.8821Q132.572 67.0768 132.544 67.2703Q132.515 67.4638 132.477 67.6557Q132.439 67.8475 132.391 68.0373Q132.344 68.2271 132.287 68.4143Q132.23 68.6015 132.164 68.7857Q132.098 68.9699 132.023 69.1506Q131.949 69.3313 131.865 69.5082Q131.781 69.685 131.689 69.8576Q131.597 70.0301 131.496 70.1979Q131.396 70.3657 131.287 70.5283Q131.178 70.691 131.062 70.8481Q130.945 71.0052 130.821 71.1565Q130.697 71.3077 130.566 71.4526Q130.434 71.5976 130.296 71.7359Q130.158 71.8743 130.013 72.0056Q129.868 72.137 129.716 72.2611Q129.565 72.3852 129.408 72.5018Q129.251 72.6183 129.088 72.727Q128.926 72.8357 128.758 72.9362Q128.59 73.0368 128.418 73.129Q128.245 73.2212 128.068 73.3049Q127.891 73.3885 127.711 73.4634Q127.53 73.5382 127.346 73.6042Q127.161 73.6701 126.974 73.7269Q126.787 73.7836 126.597 73.8312Q126.408 73.8787 126.216 73.9169Q126.024 73.955 125.83 73.9837Q125.637 74.0125 125.442 74.0316Q125.247 74.0508 125.052 74.0604Q124.857 74.07 124.661 74.07L7.969 74.07Q7.77337 74.07 7.57798 74.0604Q7.38259 74.0508 7.1879 74.0316Q6.99322 74.0125 6.7997 73.9837Q6.60619 73.955 6.41432 73.9169Q6.22246 73.8787 6.03269 73.8312Q5.84293 73.7836 5.65572 73.7269Q5.46852 73.6701 5.28432 73.6042Q5.10013 73.5382 4.9194 73.4634Q4.73866 73.3885 4.56181 73.3049Q4.38497 73.2212 4.21244 73.129Q4.03991 73.0368 3.87211 72.9362Q3.70432 72.8357 3.54166 72.727Q3.379 72.6183 3.22187 72.5018Q3.06474 72.3852 2.91352 72.2611Q2.7623 72.137 2.61735 72.0056Q2.4724 71.8743 2.33407 71.7359Q2.19574 71.5976 2.06436 71.4526Q1.93298 71.3077 1.80888 71.1565Q1.68477 71.0052 1.56824 70.8481Q1.4517 70.691 1.34302 70.5283Q1.23433 70.3657 1.13376 70.1979Q1.03319 70.0301 0.940969 69.8576Q0.848751 69.685 0.765109 69.5082Q0.681467 69.3313 0.606604 69.1506Q0.53174 68.9699 0.465835 68.7857Q0.39993 68.6015 0.343142 68.4143Q0.286355 68.2271 0.238821 68.0373Q0.191287 67.8475 0.153122 67.6557Q0.114957 67.4638 0.0862524 67.2703Q0.0575478 67.0768 0.0383729 66.8821Q0.019198 66.6874 0.00959901 66.492Q0 66.2966 0 66.101L0 7.969Q0 7.77337 0.00959901 7.57798Q0.019198 7.38259 0.0383729 7.1879Q0.0575478 6.99322 0.0862524 6.7997Q0.114957 6.60619 0.153122 6.41432Q0.191287 6.22246 0.238821 6.03269Q0.286355 5.84293 0.343142 5.65572Q0.39993 5.46852 0.465835 5.28432Q0.53174 5.10013 0.606604 4.9194Q0.681467 4.73866 0.765109 4.56181Q0.848751 4.38497 0.940969 4.21244Q1.03319 4.03991 1.13376 3.87211Q1.23433 3.70432 1.34302 3.54166Q1.4517 3.379 1.56824 3.22187Q1.68477 3.06474 1.80888 2.91352Q1.93298 2.7623 2.06436 2.61735Q2.19574 2.4724 2.33407 2.33407Q2.4724 2.19574 2.61735 2.06436Q2.7623 1.93298 2.91352 1.80888Q3.06474 1.68477 3.22187 1.56824Q3.379 1.4517 3.54166 1.34302Q3.70432 1.23433 3.87212 1.13376Q4.03991 1.03319 4.21244 0.940969Q4.38497 0.848751 4.56181 0.765109Q4.73866 0.681467 4.9194 0.606604Q5.10013 0.53174 5.28432 0.465835Q5.46852 0.39993 5.65572 0.343142Q5.84293 0.286355 6.03269 0.238821Q6.22246 0.191287 6.41432 0.153122Q6.60619 0.114957 6.7997 0.0862524Q6.99322 0.0575478 7.1879 0.0383729Q7.38259 0.019198 7.57798 0.00959901Q7.77337 0 7.969 0L7.969 0Z" transform="translate(8.68 8.5)" id="Rectangle" fill="#498DBC" fill-opacity="0.3" fill-rule="evenodd" stroke="none" />
    <path d="M1.84 3.68C2.8562 3.68 3.68 2.8562 3.68 1.84C3.68 0.823796 2.8562 0 1.84 0C0.823796 0 0 0.823796 0 1.84C0 2.8562 0.823796 3.68 1.84 3.68Z" transform="translate(16.75 15.39)" id="Oval" fill="#FFBA00" fill-rule="evenodd" stroke="none" />
    <path d="M1.84 3.68C2.8562 3.68 3.68 2.8562 3.68 1.84C3.68 0.823796 2.8562 0 1.84 0C0.823796 0 0 0.823796 0 1.84C0 2.8562 0.823796 3.68 1.84 3.68Z" transform="translate(24.23 15.39)" id="Oval" fill="#FFBA00" fill-rule="evenodd" stroke="none" />
    <path d="M1.84 3.68C2.8562 3.68 3.68 2.8562 3.68 1.84C3.68 0.823796 2.8562 0 1.84 0C0.823796 0 0 0.823796 0 1.84C0 2.8562 0.823796 3.68 1.84 3.68Z" transform="translate(31.7 15.39)" id="Oval" fill="#FFBA00" fill-rule="evenodd" stroke="none" />
    <path d="M46.63 22.8371C46.3672 10.1487 36.0061 0 23.315 0C10.6239 3.55271e-15 0.262792 10.1487 0 22.8371C0 36.7771 14.19 49.4971 20.43 54.4071C22.1163 55.7468 24.5037 55.7468 26.19 54.4071C32.43 49.4971 46.63 36.7771 46.63 22.8371Z" transform="translate(79.67 17.012882)" id="Path" fill="url(#gradient_2)" fill-rule="evenodd" stroke="none" />
    <path d="M16.01 32.02C24.8521 32.02 32.02 24.8521 32.02 16.01C32.02 7.16792 24.8521 0 16.01 0C7.16792 0 0 7.16792 0 16.01C0 24.8521 7.16792 32.02 16.01 32.02Z" transform="translate(86.97 23.84)" id="Oval" fill="#F15A24" fill-opacity="0.5" fill-rule="evenodd" stroke="none" />
    <path d="M0.46 12.9208L3.09 12.9208C3.21539 12.9257 3.33644 12.8744 3.42 12.7808C3.50514 12.6963 3.55209 12.5807 3.55 12.4608L3.55 0.460773C3.55616 0.337193 3.50879 0.216946 3.42 0.130773C3.33459 0.0408406 3.2138 -0.0067439 3.09 0.000773227L0.46 0.000773227C0.205949 0.000773227 0 0.206722 0 0.460773L0 12.4608C0.0102045 12.7105 0.210298 12.9106 0.46 12.9208Z" transform="translate(95.38 33.36923)" id="Path" fill="#FFFFFF" fill-rule="evenodd" stroke="none" />
    <path d="M0.460112 12.8704L3.11011 12.8704C3.2355 12.8754 3.35655 12.824 3.44011 12.7304C3.52525 12.6459 3.57221 12.5303 3.57011 12.4104L3.57011 8.41042L5.67011 8.41042C6.99638 8.50173 8.31541 8.14998 9.42011 7.41042C10.3628 6.65516 10.8748 5.48536 10.7901 4.28042C10.8693 3.06214 10.3599 1.8797 9.42011 1.10042C8.33332 0.315288 7.00844 -0.0698116 5.67011 0.0104164L0.460112 0.0104164C0.33547 0.00936533 0.215975 0.06006 0.130112 0.150416C0.044729 0.242853 -0.00181947 0.364595 0.000112265 0.490416L0.000112265 12.4104C0.0103168 12.6601 0.21041 12.8602 0.460112 12.8704ZM3.57011 2.64042L5.57011 2.64042C6.02118 2.60441 6.46586 2.76479 6.79011 3.08042C7.06761 3.40129 7.21086 3.81671 7.19011 4.24042C7.21559 4.67322 7.0598 5.09711 6.76011 5.41042C6.42654 5.68533 6.00169 5.82456 5.57011 5.80042L3.57011 5.80042L3.57011 2.64042Z" transform="translate(101.429886 33.419582)" id="Shape" fill="#FFFFFF" stroke="none" />
    <path d="M2.044 0L55.456 0Q55.5564 0 55.6563 0.00984242Q55.7563 0.0196848 55.8548 0.0392749Q55.9533 0.0588649 56.0493 0.0880139Q56.1454 0.117163 56.2382 0.15559Q56.331 0.194017 56.4195 0.241353Q56.5081 0.288688 56.5916 0.344476Q56.6751 0.400264 56.7527 0.463967Q56.8303 0.527669 56.9013 0.598674Q56.9723 0.669678 57.036 0.7473Q57.0997 0.824922 57.1555 0.908414Q57.2113 0.991907 57.2586 1.08046Q57.306 1.16902 57.3444 1.26179Q57.3828 1.35457 57.412 1.45066Q57.4411 1.54675 57.4607 1.64524Q57.4803 1.74372 57.4902 1.84365Q57.5 1.94359 57.5 2.044L57.5 2.046Q57.5 2.14642 57.4902 2.24635Q57.4803 2.34628 57.4607 2.44476Q57.4411 2.54325 57.412 2.63934Q57.3828 2.73543 57.3444 2.8282Q57.306 2.92098 57.2586 3.00953Q57.2113 3.09809 57.1555 3.18159Q57.0997 3.26508 57.036 3.3427Q56.9723 3.42032 56.9013 3.49133Q56.8303 3.56233 56.7527 3.62603Q56.6751 3.68974 56.5916 3.74552Q56.5081 3.80131 56.4195 3.84865Q56.331 3.89598 56.2382 3.93441Q56.1454 3.97284 56.0493 4.00199Q55.9533 4.03113 55.8548 4.05072Q55.7563 4.07032 55.6563 4.08016Q55.5564 4.09 55.456 4.09L2.044 4.09Q1.94359 4.09 1.84365 4.08016Q1.74372 4.07032 1.64524 4.05072Q1.54675 4.03113 1.45066 4.00199Q1.35457 3.97284 1.26179 3.93441Q1.16902 3.89598 1.08046 3.84865Q0.991907 3.80131 0.908414 3.74552Q0.824922 3.68974 0.7473 3.62603Q0.669678 3.56233 0.598674 3.49133Q0.527669 3.42032 0.463967 3.3427Q0.400264 3.26508 0.344476 3.18158Q0.288688 3.09809 0.241353 3.00953Q0.194017 2.92098 0.15559 2.8282Q0.117163 2.73543 0.0880139 2.63934Q0.0588649 2.54325 0.0392749 2.44476Q0.0196848 2.34628 0.00984242 2.24635Q0 2.14642 0 2.046L0 2.044Q0 1.94359 0.00984242 1.84365Q0.0196848 1.74372 0.0392749 1.64524Q0.0588649 1.54675 0.0880139 1.45066Q0.117163 1.35457 0.15559 1.26179Q0.194017 1.16902 0.241353 1.08046Q0.288688 0.991907 0.344476 0.908414Q0.400264 0.824922 0.463967 0.7473Q0.527669 0.669678 0.598674 0.598674Q0.669678 0.527669 0.7473 0.463967Q0.824922 0.400264 0.908414 0.344476Q0.991907 0.288688 1.08046 0.241353Q1.16902 0.194017 1.26179 0.15559Q1.35457 0.117163 1.45066 0.0880139Q1.54675 0.0588649 1.64524 0.0392749Q1.74372 0.0196848 1.84365 0.00984242Q1.94359 0 2.044 0L2.044 0Z" transform="translate(16.75 26.31)" id="Rectangle" fill="#498DBC" fill-opacity="0.3" fill-rule="evenodd" stroke="none" />
    <path d="M2.044 0L55.456 0Q55.5564 0 55.6563 0.00984242Q55.7563 0.0196848 55.8548 0.0392749Q55.9533 0.0588649 56.0493 0.0880139Q56.1454 0.117163 56.2382 0.15559Q56.331 0.194017 56.4195 0.241353Q56.5081 0.288688 56.5916 0.344476Q56.6751 0.400264 56.7527 0.463967Q56.8303 0.527669 56.9013 0.598674Q56.9723 0.669678 57.036 0.7473Q57.0997 0.824922 57.1555 0.908414Q57.2113 0.991907 57.2586 1.08046Q57.306 1.16902 57.3444 1.26179Q57.3828 1.35457 57.412 1.45066Q57.4411 1.54675 57.4607 1.64524Q57.4803 1.74372 57.4902 1.84365Q57.5 1.94359 57.5 2.044L57.5 2.046Q57.5 2.14642 57.4902 2.24635Q57.4803 2.34628 57.4607 2.44476Q57.4411 2.54325 57.412 2.63934Q57.3828 2.73543 57.3444 2.8282Q57.306 2.92098 57.2586 3.00953Q57.2113 3.09809 57.1555 3.18159Q57.0997 3.26508 57.036 3.3427Q56.9723 3.42032 56.9013 3.49133Q56.8303 3.56233 56.7527 3.62603Q56.6751 3.68974 56.5916 3.74552Q56.5081 3.80131 56.4195 3.84865Q56.331 3.89598 56.2382 3.93441Q56.1454 3.97284 56.0493 4.00199Q55.9533 4.03113 55.8548 4.05072Q55.7563 4.07032 55.6563 4.08016Q55.5564 4.09 55.456 4.09L2.044 4.09Q1.94359 4.09 1.84365 4.08016Q1.74372 4.07032 1.64524 4.05072Q1.54675 4.03113 1.45066 4.00199Q1.35457 3.97284 1.26179 3.93441Q1.16902 3.89598 1.08046 3.84865Q0.991907 3.80131 0.908414 3.74552Q0.824922 3.68974 0.7473 3.62603Q0.669678 3.56233 0.598674 3.49133Q0.527669 3.42032 0.463967 3.3427Q0.400264 3.26508 0.344476 3.18158Q0.288688 3.09809 0.241353 3.00953Q0.194017 2.92098 0.15559 2.8282Q0.117163 2.73543 0.0880139 2.63934Q0.0588649 2.54325 0.0392749 2.44476Q0.0196848 2.34628 0.00984242 2.24635Q0 2.14642 0 2.046L0 2.044Q0 1.94359 0.00984242 1.84365Q0.0196848 1.74372 0.0392749 1.64524Q0.0588649 1.54675 0.0880139 1.45066Q0.117163 1.35457 0.15559 1.26179Q0.194017 1.16902 0.241353 1.08046Q0.288688 0.991907 0.344476 0.908414Q0.400264 0.824922 0.463967 0.7473Q0.527669 0.669678 0.598674 0.598674Q0.669678 0.527669 0.7473 0.463967Q0.824922 0.400264 0.908414 0.344476Q0.991907 0.288688 1.08046 0.241353Q1.16902 0.194017 1.26179 0.15559Q1.35457 0.117163 1.45066 0.0880139Q1.54675 0.0588649 1.64524 0.0392749Q1.74372 0.0196848 1.84365 0.00984242Q1.94359 0 2.044 0L2.044 0Z" transform="translate(16.75 33.28)" id="Rectangle" fill="#498DBC" fill-opacity="0.3" fill-rule="evenodd" stroke="none" />
    <path d="M2.044 0L44.036 0Q44.1364 0 44.2363 0.00984242Q44.3363 0.0196848 44.4348 0.0392749Q44.5333 0.0588649 44.6293 0.0880139Q44.7254 0.117163 44.8182 0.15559Q44.911 0.194017 44.9995 0.241353Q45.0881 0.288688 45.1716 0.344476Q45.2551 0.400264 45.3327 0.463967Q45.4103 0.527669 45.4813 0.598674Q45.5523 0.669678 45.616 0.7473Q45.6797 0.824922 45.7355 0.908414Q45.7913 0.991907 45.8386 1.08046Q45.886 1.16902 45.9244 1.26179Q45.9628 1.35457 45.992 1.45066Q46.0211 1.54675 46.0407 1.64524Q46.0603 1.74372 46.0702 1.84365Q46.08 1.94359 46.08 2.044L46.08 2.046Q46.08 2.14642 46.0702 2.24635Q46.0603 2.34628 46.0407 2.44476Q46.0211 2.54325 45.992 2.63934Q45.9628 2.73543 45.9244 2.8282Q45.886 2.92098 45.8386 3.00953Q45.7913 3.09809 45.7355 3.18159Q45.6797 3.26508 45.616 3.3427Q45.5523 3.42032 45.4813 3.49133Q45.4103 3.56233 45.3327 3.62603Q45.2551 3.68974 45.1716 3.74552Q45.0881 3.80131 44.9995 3.84865Q44.911 3.89598 44.8182 3.93441Q44.7254 3.97284 44.6293 4.00199Q44.5333 4.03113 44.4348 4.05072Q44.3363 4.07032 44.2364 4.08016Q44.1364 4.09 44.036 4.09L2.044 4.09Q1.94359 4.09 1.84365 4.08016Q1.74372 4.07032 1.64524 4.05072Q1.54675 4.03113 1.45066 4.00199Q1.35457 3.97284 1.26179 3.93441Q1.16902 3.89598 1.08046 3.84865Q0.991907 3.80131 0.908414 3.74552Q0.824922 3.68974 0.7473 3.62603Q0.669678 3.56233 0.598674 3.49133Q0.527669 3.42032 0.463967 3.3427Q0.400264 3.26508 0.344476 3.18158Q0.288688 3.09809 0.241353 3.00953Q0.194017 2.92098 0.15559 2.8282Q0.117163 2.73543 0.0880139 2.63934Q0.0588649 2.54325 0.0392749 2.44476Q0.0196848 2.34628 0.00984242 2.24635Q0 2.14642 0 2.046L0 2.044Q0 1.94359 0.00984242 1.84365Q0.0196848 1.74372 0.0392749 1.64524Q0.0588649 1.54675 0.0880139 1.45066Q0.117163 1.35457 0.15559 1.26179Q0.194017 1.16902 0.241353 1.08046Q0.288688 0.991907 0.344476 0.908414Q0.400264 0.824922 0.463967 0.7473Q0.527669 0.669678 0.598674 0.598674Q0.669678 0.527669 0.7473 0.463967Q0.824922 0.400264 0.908414 0.344476Q0.991907 0.288688 1.08046 0.241353Q1.16902 0.194017 1.26179 0.15559Q1.35457 0.117163 1.45066 0.0880139Q1.54675 0.0588649 1.64524 0.0392749Q1.74372 0.0196848 1.84365 0.00984242Q1.94359 0 2.044 0Z" transform="translate(16.75 40.25)" id="Rectangle" fill="#498DBC" fill-opacity="0.3" fill-rule="evenodd" stroke="none" />
    <path d="M2.044 0L55.456 0Q55.5564 0 55.6563 0.00984242Q55.7563 0.0196848 55.8548 0.0392749Q55.9533 0.0588649 56.0493 0.0880139Q56.1454 0.117163 56.2382 0.15559Q56.331 0.194017 56.4195 0.241353Q56.5081 0.288688 56.5916 0.344476Q56.6751 0.400264 56.7527 0.463967Q56.8303 0.527669 56.9013 0.598674Q56.9723 0.669678 57.036 0.7473Q57.0997 0.824922 57.1555 0.908414Q57.2113 0.991907 57.2586 1.08046Q57.306 1.16902 57.3444 1.26179Q57.3828 1.35457 57.412 1.45066Q57.4411 1.54675 57.4607 1.64524Q57.4803 1.74372 57.4902 1.84365Q57.5 1.94359 57.5 2.044L57.5 2.046Q57.5 2.14642 57.4902 2.24635Q57.4803 2.34628 57.4607 2.44476Q57.4411 2.54325 57.412 2.63934Q57.3828 2.73543 57.3444 2.8282Q57.306 2.92098 57.2586 3.00953Q57.2113 3.09809 57.1555 3.18159Q57.0997 3.26508 57.036 3.3427Q56.9723 3.42032 56.9013 3.49133Q56.8303 3.56233 56.7527 3.62603Q56.6751 3.68974 56.5916 3.74552Q56.5081 3.80131 56.4195 3.84865Q56.331 3.89598 56.2382 3.93441Q56.1454 3.97284 56.0493 4.00199Q55.9533 4.03113 55.8548 4.05072Q55.7563 4.07032 55.6563 4.08016Q55.5564 4.09 55.456 4.09L2.044 4.09Q1.94359 4.09 1.84365 4.08016Q1.74372 4.07032 1.64524 4.05072Q1.54675 4.03113 1.45066 4.00199Q1.35457 3.97284 1.26179 3.93441Q1.16902 3.89598 1.08046 3.84865Q0.991907 3.80131 0.908414 3.74552Q0.824922 3.68974 0.7473 3.62603Q0.669678 3.56233 0.598674 3.49133Q0.527669 3.42032 0.463967 3.3427Q0.400264 3.26508 0.344476 3.18158Q0.288688 3.09809 0.241353 3.00953Q0.194017 2.92098 0.15559 2.8282Q0.117163 2.73543 0.0880139 2.63934Q0.0588649 2.54325 0.0392749 2.44476Q0.0196848 2.34628 0.00984242 2.24635Q0 2.14642 0 2.046L0 2.044Q0 1.94359 0.00984242 1.84365Q0.0196848 1.74372 0.0392749 1.64524Q0.0588649 1.54675 0.0880139 1.45066Q0.117163 1.35457 0.15559 1.26179Q0.194017 1.16902 0.241353 1.08046Q0.288688 0.991907 0.344476 0.908414Q0.400264 0.824922 0.463967 0.7473Q0.527669 0.669678 0.598674 0.598674Q0.669678 0.527669 0.7473 0.463967Q0.824922 0.400264 0.908414 0.344476Q0.991907 0.288688 1.08046 0.241353Q1.16902 0.194017 1.26179 0.15559Q1.35457 0.117163 1.45066 0.0880139Q1.54675 0.0588649 1.64524 0.0392749Q1.74372 0.0196848 1.84365 0.00984242Q1.94359 0 2.044 0L2.044 0Z" transform="translate(16.75 54.2)" id="Rectangle" fill="#498DBC" fill-opacity="0.3" fill-rule="evenodd" stroke="none" />
    <path d="M2.044 0L55.456 0Q55.5564 0 55.6563 0.00984242Q55.7563 0.0196848 55.8548 0.0392749Q55.9533 0.0588649 56.0493 0.0880139Q56.1454 0.117163 56.2382 0.15559Q56.331 0.194017 56.4195 0.241353Q56.5081 0.288688 56.5916 0.344476Q56.6751 0.400264 56.7527 0.463967Q56.8303 0.527669 56.9013 0.598674Q56.9723 0.669678 57.036 0.7473Q57.0997 0.824922 57.1555 0.908414Q57.2113 0.991907 57.2586 1.08046Q57.306 1.16902 57.3444 1.26179Q57.3828 1.35457 57.412 1.45066Q57.4411 1.54675 57.4607 1.64524Q57.4803 1.74372 57.4902 1.84365Q57.5 1.94359 57.5 2.044L57.5 2.046Q57.5 2.14642 57.4902 2.24635Q57.4803 2.34628 57.4607 2.44476Q57.4411 2.54325 57.412 2.63934Q57.3828 2.73543 57.3444 2.8282Q57.306 2.92098 57.2586 3.00953Q57.2113 3.09809 57.1555 3.18159Q57.0997 3.26508 57.036 3.3427Q56.9723 3.42032 56.9013 3.49133Q56.8303 3.56233 56.7527 3.62603Q56.6751 3.68974 56.5916 3.74552Q56.5081 3.80131 56.4195 3.84865Q56.331 3.89598 56.2382 3.93441Q56.1454 3.97284 56.0493 4.00199Q55.9533 4.03113 55.8548 4.05072Q55.7563 4.07032 55.6563 4.08016Q55.5564 4.09 55.456 4.09L2.044 4.09Q1.94359 4.09 1.84365 4.08016Q1.74372 4.07032 1.64524 4.05072Q1.54675 4.03113 1.45066 4.00199Q1.35457 3.97284 1.26179 3.93441Q1.16902 3.89598 1.08046 3.84865Q0.991907 3.80131 0.908414 3.74552Q0.824922 3.68974 0.7473 3.62603Q0.669678 3.56233 0.598674 3.49133Q0.527669 3.42032 0.463967 3.3427Q0.400264 3.26508 0.344476 3.18158Q0.288688 3.09809 0.241353 3.00953Q0.194017 2.92098 0.15559 2.8282Q0.117163 2.73543 0.0880139 2.63934Q0.0588649 2.54325 0.0392749 2.44476Q0.0196848 2.34628 0.00984242 2.24635Q0 2.14642 0 2.046L0 2.044Q0 1.94359 0.00984242 1.84365Q0.0196848 1.74372 0.0392749 1.64524Q0.0588649 1.54675 0.0880139 1.45066Q0.117163 1.35457 0.15559 1.26179Q0.194017 1.16902 0.241353 1.08046Q0.288688 0.991907 0.344476 0.908414Q0.400264 0.824922 0.463967 0.7473Q0.527669 0.669678 0.598674 0.598674Q0.669678 0.527669 0.7473 0.463967Q0.824922 0.400264 0.908414 0.344476Q0.991907 0.288688 1.08046 0.241353Q1.16902 0.194017 1.26179 0.15559Q1.35457 0.117163 1.45066 0.0880139Q1.54675 0.0588649 1.64524 0.0392749Q1.74372 0.0196848 1.84365 0.00984242Q1.94359 0 2.044 0L2.044 0Z" transform="translate(16.75 61.17)" id="Rectangle" fill="#498DBC" fill-opacity="0.3" fill-rule="evenodd" stroke="none" />
    <path d="M2.044 0L44.036 0Q44.1364 0 44.2363 0.00984242Q44.3363 0.0196848 44.4348 0.0392749Q44.5333 0.0588649 44.6293 0.0880139Q44.7254 0.117163 44.8182 0.15559Q44.911 0.194017 44.9995 0.241353Q45.0881 0.288688 45.1716 0.344476Q45.2551 0.400264 45.3327 0.463967Q45.4103 0.527669 45.4813 0.598674Q45.5523 0.669678 45.616 0.7473Q45.6797 0.824922 45.7355 0.908414Q45.7913 0.991907 45.8386 1.08046Q45.886 1.16902 45.9244 1.26179Q45.9628 1.35457 45.992 1.45066Q46.0211 1.54675 46.0407 1.64524Q46.0603 1.74372 46.0702 1.84365Q46.08 1.94359 46.08 2.044L46.08 2.046Q46.08 2.14642 46.0702 2.24635Q46.0603 2.34628 46.0407 2.44476Q46.0211 2.54325 45.992 2.63934Q45.9628 2.73543 45.9244 2.8282Q45.886 2.92098 45.8386 3.00953Q45.7913 3.09809 45.7355 3.18159Q45.6797 3.26508 45.616 3.3427Q45.5523 3.42032 45.4813 3.49133Q45.4103 3.56233 45.3327 3.62603Q45.2551 3.68974 45.1716 3.74552Q45.0881 3.80131 44.9995 3.84865Q44.911 3.89598 44.8182 3.93441Q44.7254 3.97284 44.6293 4.00199Q44.5333 4.03113 44.4348 4.05072Q44.3363 4.07032 44.2364 4.08016Q44.1364 4.09 44.036 4.09L2.044 4.09Q1.94359 4.09 1.84365 4.08016Q1.74372 4.07032 1.64524 4.05072Q1.54675 4.03113 1.45066 4.00199Q1.35457 3.97284 1.26179 3.93441Q1.16902 3.89598 1.08046 3.84865Q0.991907 3.80131 0.908414 3.74552Q0.824922 3.68974 0.7473 3.62603Q0.669678 3.56233 0.598674 3.49133Q0.527669 3.42032 0.463967 3.3427Q0.400264 3.26508 0.344476 3.18158Q0.288688 3.09809 0.241353 3.00953Q0.194017 2.92098 0.15559 2.8282Q0.117163 2.73543 0.0880139 2.63934Q0.0588649 2.54325 0.0392749 2.44476Q0.0196848 2.34628 0.00984242 2.24635Q0 2.14642 0 2.046L0 2.044Q0 1.94359 0.00984242 1.84365Q0.0196848 1.74372 0.0392749 1.64524Q0.0588649 1.54675 0.0880139 1.45066Q0.117163 1.35457 0.15559 1.26179Q0.194017 1.16902 0.241353 1.08046Q0.288688 0.991907 0.344476 0.908414Q0.400264 0.824922 0.463967 0.7473Q0.527669 0.669678 0.598674 0.598674Q0.669678 0.527669 0.7473 0.463967Q0.824922 0.400264 0.908414 0.344476Q0.991907 0.288688 1.08046 0.241353Q1.16902 0.194017 1.26179 0.15559Q1.35457 0.117163 1.45066 0.0880139Q1.54675 0.0588649 1.64524 0.0392749Q1.74372 0.0196848 1.84365 0.00984242Q1.94359 0 2.044 0Z" transform="translate(16.75 68.14)" id="Rectangle" fill="#498DBC" fill-opacity="0.3" fill-rule="evenodd" stroke="none" />
    <path d="M0 0L32.16 0L32.16 7.74L0 7.74L0 0Z" transform="translate(58.92 91.07)" id="Rectangle" fill="url(#gradient_3)" fill-rule="evenodd" stroke="none" />
    <path d="M6.96001 1.42109e-14L63.46 1.42109e-14C67.326 0 70.46 3.13401 70.46 7L70.46 13.19L7.46465e-06 13.19L7.46465e-06 7.01C-0.00556163 3.15567 3.10574 0.0220207 6.96001 0L6.96001 1.42109e-14Z" transform="translate(39.789993 98.81)" id="Path" fill="url(#gradient_4)" fill-rule="evenodd" stroke="none" />
    <path d="M0 0L70.42 0L70.42 4.5L0 4.5L0 0Z" transform="translate(39.79 107.46)" id="Rectangle" fill="#498DBC" fill-opacity="0.3" fill-rule="evenodd" stroke="none" />
  </g>
</svg>