<?xml version="1.0" encoding="utf-8"?>
<svg width="150px" height="112px" viewBox="0 0 150 112" version="1.1" xmlns:xlink="http://www.w3.org/1999/xlink" xmlns="http://www.w3.org/2000/svg">
  <desc>Created with Lunacy</desc>
  <defs>
    <linearGradient x1="0.5000409" y1="1.2118803" x2="0.5000409" y2="-0.18088432" id="gradient_1">
      <stop offset="0" stop-color="#002649" />
      <stop offset="0.32" stop-color="#042A4F" />
      <stop offset="0.75" stop-color="#0F3460" />
      <stop offset="1" stop-color="#183D6D" />
    </linearGradient>
    <linearGradient x1="0.5" y1="1.5376515" x2="0.5" y2="-0.49633056" id="gradient_2">
      <stop offset="0" stop-color="#FF2A64" />
      <stop offset="0.08" stop-color="#FF465E" />
      <stop offset="0.18" stop-color="#FF6657" />
      <stop offset="0.29" stop-color="#FF8152" />
      <stop offset="0.42" stop-color="#FF954D" />
      <stop offset="0.56" stop-color="#FFA44A" />
      <stop offset="0.73" stop-color="#FFAC49" />
      <stop offset="1" stop-color="#FFAF48" />
    </linearGradient>
  </defs>
  <g id="Icon-3">
    <path d="M7.949 0L114.381 0Q114.576 0 114.771 0.00957492Q114.966 0.0191498 115.16 0.0382766Q115.354 0.0574034 115.547 0.0860359Q115.74 0.114668 115.932 0.152738Q116.123 0.190807 116.312 0.238222Q116.502 0.285636 116.688 0.342281Q116.875 0.398926 117.059 0.464666Q117.243 0.530406 117.423 0.605081Q117.603 0.679757 117.78 0.763189Q117.956 0.846621 118.128 0.938608Q118.3 1.03059 118.468 1.13092Q118.635 1.23124 118.797 1.33965Q118.959 1.44806 119.116 1.5643Q119.273 1.68055 119.424 1.80434Q119.575 1.92813 119.719 2.05918Q119.864 2.19023 120.002 2.32821Q120.14 2.46619 120.271 2.61078Q120.402 2.75536 120.526 2.90621Q120.649 3.05705 120.766 3.21379Q120.882 3.37052 120.99 3.53277Q121.099 3.69502 121.199 3.8624Q121.299 4.02977 121.391 4.20187Q121.483 4.37396 121.567 4.55036Q121.65 4.72677 121.725 4.90705Q121.8 5.08733 121.865 5.27106Q121.931 5.45479 121.988 5.64153Q122.044 5.82826 122.092 6.01755Q122.139 6.20684 122.177 6.39823Q122.215 6.58961 122.244 6.78264Q122.273 6.97566 122.292 7.16986Q122.311 7.36406 122.32 7.55896Q122.33 7.75386 122.33 7.949L122.33 104.001Q122.33 104.196 122.32 104.391Q122.311 104.586 122.292 104.78Q122.273 104.974 122.244 105.167Q122.215 105.36 122.177 105.552Q122.139 105.743 122.092 105.932Q122.044 106.122 121.988 106.308Q121.931 106.495 121.865 106.679Q121.8 106.863 121.725 107.043Q121.65 107.223 121.567 107.4Q121.483 107.576 121.391 107.748Q121.299 107.92 121.199 108.088Q121.099 108.255 120.99 108.417Q120.882 108.579 120.766 108.736Q120.649 108.893 120.526 109.044Q120.402 109.195 120.271 109.339Q120.14 109.484 120.002 109.622Q119.864 109.76 119.719 109.891Q119.575 110.022 119.424 110.146Q119.273 110.269 119.116 110.386Q118.959 110.502 118.797 110.61Q118.635 110.719 118.468 110.819Q118.3 110.919 118.128 111.011Q117.956 111.103 117.78 111.187Q117.603 111.27 117.423 111.345Q117.243 111.42 117.059 111.485Q116.875 111.551 116.688 111.608Q116.502 111.664 116.312 111.712Q116.123 111.759 115.932 111.797Q115.74 111.835 115.547 111.864Q115.354 111.893 115.16 111.912Q114.966 111.931 114.771 111.94Q114.576 111.95 114.381 111.95L7.949 111.95Q7.75386 111.95 7.55896 111.94Q7.36406 111.931 7.16986 111.912Q6.97566 111.893 6.78264 111.864Q6.58961 111.835 6.39823 111.797Q6.20684 111.759 6.01755 111.712Q5.82826 111.664 5.64153 111.608Q5.45479 111.551 5.27106 111.485Q5.08733 111.42 4.90705 111.345Q4.72677 111.27 4.55036 111.187Q4.37396 111.103 4.20187 111.011Q4.02977 110.919 3.8624 110.819Q3.69502 110.719 3.53277 110.61Q3.37052 110.502 3.21379 110.386Q3.05705 110.269 2.90621 110.146Q2.75536 110.022 2.61078 109.891Q2.46619 109.76 2.32821 109.622Q2.19023 109.484 2.05918 109.339Q1.92813 109.195 1.80434 109.044Q1.68055 108.893 1.5643 108.736Q1.44806 108.579 1.33965 108.417Q1.23124 108.255 1.13092 108.088Q1.03059 107.92 0.938608 107.748Q0.846621 107.576 0.763189 107.4Q0.679757 107.223 0.605081 107.043Q0.530406 106.863 0.464666 106.679Q0.398926 106.495 0.342281 106.308Q0.285636 106.122 0.238222 105.932Q0.190807 105.743 0.152738 105.552Q0.114668 105.36 0.0860359 105.167Q0.0574034 104.974 0.0382766 104.78Q0.0191498 104.586 0.00957492 104.391Q0 104.196 0 104.001L0 7.949Q0 7.75386 0.00957492 7.55896Q0.0191498 7.36406 0.0382766 7.16986Q0.0574034 6.97566 0.0860359 6.78264Q0.114668 6.58961 0.152738 6.39823Q0.190807 6.20684 0.238222 6.01755Q0.285636 5.82826 0.342281 5.64153Q0.398926 5.45479 0.464666 5.27106Q0.530406 5.08733 0.605081 4.90705Q0.679757 4.72677 0.763189 4.55036Q0.846621 4.37396 0.938608 4.20187Q1.03059 4.02977 1.13092 3.8624Q1.23124 3.69502 1.33965 3.53277Q1.44806 3.37052 1.5643 3.21379Q1.68055 3.05705 1.80434 2.90621Q1.92813 2.75536 2.05918 2.61078Q2.19023 2.46619 2.32821 2.32821Q2.46619 2.19023 2.61078 2.05918Q2.75536 1.92813 2.90621 1.80434Q3.05705 1.68055 3.21379 1.5643Q3.37052 1.44806 3.53277 1.33965Q3.69502 1.23124 3.8624 1.13092Q4.02977 1.03059 4.20187 0.938608Q4.37396 0.846621 4.55036 0.763189Q4.72677 0.679757 4.90705 0.605081Q5.08733 0.530406 5.27106 0.464666Q5.45479 0.398926 5.64153 0.342281Q5.82826 0.285636 6.01755 0.238222Q6.20684 0.190807 6.39823 0.152738Q6.58961 0.114668 6.78264 0.0860359Q6.97566 0.0574034 7.16986 0.0382766Q7.36406 0.0191498 7.55896 0.00957492Q7.75386 0 7.949 0Z" id="Rectangle" fill="url(#gradient_1)" fill-rule="evenodd" stroke="none" />
    <path d="M5.879 0L91.591 0Q91.7353 0 91.8795 0.00708151Q92.0236 0.014163 92.1672 0.028309Q92.3109 0.042455 92.4536 0.0636313Q92.5964 0.0848076 92.7379 0.112963Q92.8795 0.141119 93.0195 0.176186Q93.1595 0.211253 93.2976 0.253148Q93.4357 0.295042 93.5716 0.343662Q93.7075 0.392283 93.8408 0.447512Q93.9741 0.502742 94.1046 0.564447Q94.2351 0.626152 94.3623 0.694185Q94.4896 0.762217 94.6134 0.836414Q94.7372 0.91061 94.8572 0.99079Q94.9772 1.07097 95.0931 1.15694Q95.209 1.24292 95.3206 1.33447Q95.4322 1.42603 95.5391 1.52295Q95.646 1.61987 95.7481 1.72192Q95.8501 1.82397 95.9471 1.9309Q96.044 2.03784 96.1355 2.1494Q96.2271 2.26096 96.3131 2.37688Q96.399 2.4928 96.4792 2.6128Q96.5594 2.7328 96.6336 2.85659Q96.7078 2.98038 96.7758 3.10766Q96.8438 3.23494 96.9055 3.3654Q96.9672 3.49587 97.0225 3.6292Q97.0777 3.76254 97.1263 3.89842Q97.1749 4.03431 97.2169 4.17242Q97.2587 4.31052 97.2938 4.45052Q97.3289 4.59052 97.357 4.73206Q97.3852 4.87361 97.4064 5.01637Q97.4275 5.15913 97.4417 5.30276Q97.4558 5.44638 97.4629 5.59053Q97.47 5.73468 97.47 5.879L97.47 78.151Q97.47 78.2953 97.4629 78.4395Q97.4558 78.5836 97.4417 78.7272Q97.4275 78.8709 97.4064 79.0136Q97.3852 79.1564 97.357 79.2979Q97.3289 79.4395 97.2938 79.5795Q97.2587 79.7195 97.2169 79.8576Q97.1749 79.9957 97.1263 80.1316Q97.0777 80.2675 97.0225 80.4008Q96.9672 80.5341 96.9055 80.6646Q96.8438 80.7951 96.7758 80.9223Q96.7078 81.0496 96.6336 81.1734Q96.5594 81.2972 96.4792 81.4172Q96.399 81.5372 96.313 81.6531Q96.2271 81.769 96.1355 81.8806Q96.044 81.9922 95.9471 82.0991Q95.8501 82.206 95.7481 82.3081Q95.646 82.4101 95.5391 82.507Q95.4322 82.604 95.3206 82.6955Q95.209 82.7871 95.0931 82.873Q94.9772 82.959 94.8572 83.0392Q94.7372 83.1194 94.6134 83.1936Q94.4896 83.2678 94.3623 83.3358Q94.2351 83.4038 94.1046 83.4655Q93.9741 83.5272 93.8408 83.5825Q93.7075 83.6377 93.5716 83.6863Q93.4357 83.735 93.2976 83.7768Q93.1595 83.8187 93.0195 83.8538Q92.8795 83.8889 92.7379 83.917Q92.5964 83.9452 92.4536 83.9664Q92.3109 83.9875 92.1672 84.0017Q92.0236 84.0158 91.8795 84.0229Q91.7353 84.03 91.591 84.03L5.879 84.03Q5.73468 84.03 5.59053 84.0229Q5.44638 84.0158 5.30276 84.0017Q5.15913 83.9875 5.01637 83.9664Q4.87361 83.9452 4.73206 83.917Q4.59052 83.8889 4.45052 83.8538Q4.31052 83.8187 4.17242 83.7768Q4.03431 83.7349 3.89842 83.6863Q3.76254 83.6377 3.6292 83.5825Q3.49587 83.5272 3.3654 83.4655Q3.23494 83.4038 3.10766 83.3358Q2.98038 83.2678 2.85659 83.1936Q2.7328 83.1194 2.6128 83.0392Q2.4928 82.959 2.37688 82.873Q2.26096 82.7871 2.1494 82.6955Q2.03784 82.604 1.9309 82.507Q1.82397 82.4101 1.72192 82.3081Q1.61987 82.206 1.52295 82.0991Q1.42603 81.9922 1.33447 81.8806Q1.24292 81.769 1.15694 81.6531Q1.07097 81.5372 0.99079 81.4172Q0.910609 81.2972 0.836413 81.1734Q0.762217 81.0496 0.694185 80.9223Q0.626152 80.7951 0.564447 80.6646Q0.502742 80.5341 0.447512 80.4008Q0.392283 80.2675 0.343662 80.1316Q0.295042 79.9957 0.253148 79.8576Q0.211253 79.7195 0.176186 79.5795Q0.141119 79.4395 0.112963 79.2979Q0.0848076 79.1564 0.0636313 79.0136Q0.042455 78.8709 0.028309 78.7272Q0.014163 78.5836 0.00708151 78.4395Q0 78.2953 0 78.151L0 5.879Q0 5.73468 0.00708151 5.59053Q0.014163 5.44638 0.028309 5.30276Q0.042455 5.15913 0.0636313 5.01637Q0.0848076 4.87361 0.112963 4.73206Q0.141119 4.59052 0.176186 4.45052Q0.211253 4.31052 0.253148 4.17242Q0.295042 4.03431 0.343662 3.89842Q0.392283 3.76254 0.447512 3.6292Q0.502742 3.49587 0.564447 3.3654Q0.626152 3.23494 0.694185 3.10766Q0.762217 2.98038 0.836414 2.85659Q0.91061 2.7328 0.99079 2.6128Q1.07097 2.4928 1.15694 2.37688Q1.24292 2.26096 1.33447 2.1494Q1.42603 2.03784 1.52295 1.9309Q1.61987 1.82397 1.72192 1.72192Q1.82397 1.61987 1.9309 1.52295Q2.03784 1.42603 2.1494 1.33447Q2.26096 1.24292 2.37688 1.15694Q2.4928 1.07097 2.6128 0.99079Q2.7328 0.910609 2.85659 0.836413Q2.98038 0.762217 3.10766 0.694185Q3.23494 0.626152 3.3654 0.564447Q3.49587 0.502742 3.6292 0.447512Q3.76254 0.392283 3.89842 0.343662Q4.03431 0.295042 4.17242 0.253148Q4.31052 0.211253 4.45052 0.176186Q4.59052 0.141119 4.73206 0.112963Q4.87361 0.0848076 5.01637 0.0636313Q5.15913 0.042455 5.30276 0.028309Q5.44638 0.014163 5.59053 0.00708151Q5.73468 0 5.879 0Z" transform="translate(12.43 16.92)" id="Rectangle" fill="#498DBC" fill-opacity="0.3" fill-rule="evenodd" stroke="none" />
    <path d="M2.634 0L79.366 0Q79.4954 0 79.6242 0.0126834Q79.753 0.0253669 79.8799 0.0506116Q80.0068 0.0758563 80.1306 0.113419Q80.2544 0.150982 80.374 0.200501Q80.4935 0.250021 80.6077 0.311019Q80.7218 0.372018 80.8294 0.443909Q80.937 0.5158 81.037 0.59789Q81.137 0.679981 81.2285 0.771481Q81.32 0.86298 81.4021 0.963008Q81.4842 1.06304 81.5561 1.17063Q81.628 1.27822 81.689 1.39234Q81.75 1.50646 81.7995 1.62601Q81.849 1.74556 81.8866 1.86939Q81.9241 1.99322 81.9494 2.12013Q81.9746 2.24705 81.9873 2.37582Q82 2.5046 82 2.634L82 2.636Q82 2.7654 81.9873 2.89418Q81.9746 3.02295 81.9494 3.14987Q81.9241 3.27678 81.8866 3.40061Q81.849 3.52444 81.7995 3.64399Q81.75 3.76354 81.689 3.87766Q81.628 3.99178 81.5561 4.09937Q81.4842 4.20696 81.4021 4.30699Q81.32 4.40702 81.2285 4.49852Q81.137 4.59002 81.037 4.67211Q80.937 4.7542 80.8294 4.82609Q80.7218 4.89798 80.6077 4.95898Q80.4935 5.01998 80.374 5.0695Q80.2544 5.11902 80.1306 5.15658Q80.0068 5.19414 79.8799 5.21939Q79.753 5.24463 79.6242 5.25732Q79.4954 5.27 79.366 5.27L2.634 5.27Q2.5046 5.27 2.37582 5.25732Q2.24705 5.24463 2.12013 5.21939Q1.99322 5.19414 1.86939 5.15658Q1.74556 5.11902 1.62601 5.0695Q1.50646 5.01998 1.39234 4.95898Q1.27822 4.89798 1.17063 4.82609Q1.06304 4.7542 0.963008 4.67211Q0.86298 4.59002 0.771481 4.49852Q0.679981 4.40702 0.59789 4.30699Q0.5158 4.20696 0.443909 4.09937Q0.372018 3.99178 0.311019 3.87766Q0.250021 3.76354 0.200501 3.64399Q0.150982 3.52444 0.113419 3.40061Q0.0758563 3.27678 0.0506116 3.14987Q0.0253669 3.02295 0.0126834 2.89418Q0 2.7654 0 2.636L0 2.634Q0 2.5046 0.0126834 2.37582Q0.0253669 2.24705 0.0506116 2.12013Q0.0758563 1.99322 0.113419 1.86939Q0.150982 1.74556 0.200501 1.62601Q0.250021 1.50646 0.311019 1.39234Q0.372018 1.27822 0.443909 1.17063Q0.5158 1.06304 0.59789 0.963008Q0.679981 0.86298 0.771481 0.771481Q0.86298 0.679981 0.963008 0.59789Q1.06304 0.5158 1.17063 0.443909Q1.27822 0.372018 1.39234 0.311019Q1.50646 0.250021 1.62601 0.200501Q1.74556 0.150982 1.86939 0.113419Q1.99322 0.0758563 2.12013 0.0506116Q2.24705 0.0253669 2.37582 0.0126834Q2.5046 0 2.634 0Z" transform="translate(20.17 67.85)" id="Rectangle" fill="#498DBC" fill-opacity="0.3" fill-rule="evenodd" stroke="none" />
    <path d="M2.634 0L79.366 0Q79.4954 0 79.6242 0.0126834Q79.753 0.0253669 79.8799 0.0506116Q80.0068 0.0758563 80.1306 0.113419Q80.2544 0.150982 80.374 0.200501Q80.4935 0.250021 80.6077 0.311019Q80.7218 0.372018 80.8294 0.443909Q80.937 0.5158 81.037 0.59789Q81.137 0.679981 81.2285 0.771481Q81.32 0.86298 81.4021 0.963008Q81.4842 1.06304 81.5561 1.17063Q81.628 1.27822 81.689 1.39234Q81.75 1.50646 81.7995 1.62601Q81.849 1.74556 81.8866 1.86939Q81.9241 1.99322 81.9494 2.12013Q81.9746 2.24705 81.9873 2.37582Q82 2.5046 82 2.634L82 2.636Q82 2.7654 81.9873 2.89418Q81.9746 3.02295 81.9494 3.14987Q81.9241 3.27678 81.8866 3.40061Q81.849 3.52444 81.7995 3.64399Q81.75 3.76354 81.689 3.87766Q81.628 3.99178 81.5561 4.09937Q81.4842 4.20696 81.4021 4.30699Q81.32 4.40702 81.2285 4.49852Q81.137 4.59002 81.037 4.67211Q80.937 4.7542 80.8294 4.82609Q80.7218 4.89798 80.6077 4.95898Q80.4935 5.01998 80.374 5.0695Q80.2544 5.11902 80.1306 5.15658Q80.0068 5.19414 79.8799 5.21939Q79.753 5.24463 79.6242 5.25732Q79.4954 5.27 79.366 5.27L2.634 5.27Q2.5046 5.27 2.37582 5.25732Q2.24705 5.24463 2.12013 5.21939Q1.99322 5.19414 1.86939 5.15658Q1.74556 5.11902 1.62601 5.0695Q1.50646 5.01998 1.39234 4.95898Q1.27822 4.89798 1.17063 4.82609Q1.06304 4.7542 0.963008 4.67211Q0.86298 4.59002 0.771481 4.49852Q0.679981 4.40702 0.59789 4.30699Q0.5158 4.20696 0.443909 4.09937Q0.372018 3.99178 0.311019 3.87766Q0.250021 3.76354 0.200501 3.64399Q0.150982 3.52444 0.113419 3.40061Q0.0758563 3.27678 0.0506116 3.14987Q0.0253669 3.02295 0.0126834 2.89418Q0 2.7654 0 2.636L0 2.634Q0 2.5046 0.0126834 2.37582Q0.0253669 2.24705 0.0506116 2.12013Q0.0758563 1.99322 0.113419 1.86939Q0.150982 1.74556 0.200501 1.62601Q0.250021 1.50646 0.311019 1.39234Q0.372018 1.27822 0.443909 1.17063Q0.5158 1.06304 0.59789 0.963008Q0.679981 0.86298 0.771481 0.771481Q0.86298 0.679981 0.963008 0.59789Q1.06304 0.5158 1.17063 0.443909Q1.27822 0.372018 1.39234 0.311019Q1.50646 0.250021 1.62601 0.200501Q1.74556 0.150982 1.86939 0.113419Q1.99322 0.0758563 2.12013 0.0506116Q2.24705 0.0253669 2.37582 0.0126834Q2.5046 0 2.634 0Z" transform="translate(20.17 76.82)" id="Rectangle" fill="#498DBC" fill-opacity="0.3" fill-rule="evenodd" stroke="none" />
    <path d="M2.634 0L79.366 0Q79.4954 0 79.6242 0.0126834Q79.753 0.0253669 79.8799 0.0506116Q80.0068 0.0758563 80.1306 0.113419Q80.2544 0.150982 80.374 0.200501Q80.4935 0.250021 80.6077 0.311019Q80.7218 0.372018 80.8294 0.443909Q80.937 0.5158 81.037 0.59789Q81.137 0.679981 81.2285 0.771481Q81.32 0.86298 81.4021 0.963008Q81.4842 1.06304 81.5561 1.17063Q81.628 1.27822 81.689 1.39234Q81.75 1.50646 81.7995 1.62601Q81.849 1.74556 81.8866 1.86939Q81.9241 1.99322 81.9494 2.12013Q81.9746 2.24705 81.9873 2.37582Q82 2.5046 82 2.634L82 2.636Q82 2.7654 81.9873 2.89418Q81.9746 3.02295 81.9494 3.14987Q81.9241 3.27678 81.8866 3.40061Q81.849 3.52444 81.7995 3.64399Q81.75 3.76354 81.689 3.87766Q81.628 3.99178 81.5561 4.09937Q81.4842 4.20696 81.4021 4.30699Q81.32 4.40702 81.2285 4.49852Q81.137 4.59002 81.037 4.67211Q80.937 4.7542 80.8294 4.82609Q80.7218 4.89798 80.6077 4.95898Q80.4935 5.01998 80.374 5.0695Q80.2544 5.11902 80.1306 5.15658Q80.0068 5.19414 79.8799 5.21939Q79.753 5.24463 79.6242 5.25732Q79.4954 5.27 79.366 5.27L2.634 5.27Q2.5046 5.27 2.37582 5.25732Q2.24705 5.24463 2.12013 5.21939Q1.99322 5.19414 1.86939 5.15658Q1.74556 5.11902 1.62601 5.0695Q1.50646 5.01998 1.39234 4.95898Q1.27822 4.89798 1.17063 4.82609Q1.06304 4.7542 0.963008 4.67211Q0.86298 4.59002 0.771481 4.49852Q0.679981 4.40702 0.59789 4.30699Q0.5158 4.20696 0.443909 4.09937Q0.372018 3.99178 0.311019 3.87766Q0.250021 3.76354 0.200501 3.64399Q0.150982 3.52444 0.113419 3.40061Q0.0758563 3.27678 0.0506116 3.14987Q0.0253669 3.02295 0.0126834 2.89418Q0 2.7654 0 2.636L0 2.634Q0 2.5046 0.0126834 2.37582Q0.0253669 2.24705 0.0506116 2.12013Q0.0758563 1.99322 0.113419 1.86939Q0.150982 1.74556 0.200501 1.62601Q0.250021 1.50646 0.311019 1.39234Q0.372018 1.27822 0.443909 1.17063Q0.5158 1.06304 0.59789 0.963008Q0.679981 0.86298 0.771481 0.771481Q0.86298 0.679981 0.963008 0.59789Q1.06304 0.5158 1.17063 0.443909Q1.27822 0.372018 1.39234 0.311019Q1.50646 0.250021 1.62601 0.200501Q1.74556 0.150982 1.86939 0.113419Q1.99322 0.0758563 2.12013 0.0506116Q2.24705 0.0253669 2.37582 0.0126834Q2.5046 0 2.634 0Z" transform="translate(20.17 85.8)" id="Rectangle" fill="#498DBC" fill-opacity="0.3" fill-rule="evenodd" stroke="none" />
    <path d="M0.01 0L76.21 0L76.21 4.49C76.21 5.33074 75.876 6.13704 75.2815 6.73153C74.687 7.32602 73.8807 7.66 73.04 7.66L3.17 7.66C1.41926 7.66 0 6.24074 0 4.49L0 0L0.01 0Z" transform="translate(23.06 0)" id="Path" fill="#FFBA00" fill-rule="evenodd" stroke="none" />
    <path d="M2.489 0L41.091 0Q41.2133 0 41.335 0.0119852Q41.4567 0.0239704 41.5766 0.0478254Q41.6965 0.0716804 41.8135 0.107175Q41.9305 0.142671 42.0435 0.189464Q42.1565 0.236257 42.2643 0.293898Q42.3721 0.351539 42.4738 0.419472Q42.5755 0.487405 42.67 0.564977Q42.7645 0.642549 42.851 0.729011Q42.9375 0.815474 43.015 0.909995Q43.0926 1.00452 43.1605 1.10619Q43.2285 1.20786 43.2861 1.31569Q43.3437 1.42353 43.3905 1.5365Q43.4373 1.64947 43.4728 1.76648Q43.5083 1.88349 43.5322 2.00342Q43.556 2.12335 43.568 2.24504Q43.58 2.36672 43.58 2.489L43.58 2.491Q43.58 2.61328 43.568 2.73496Q43.556 2.85665 43.5322 2.97658Q43.5083 3.09651 43.4728 3.21352Q43.4373 3.33053 43.3905 3.4435Q43.3437 3.55647 43.2861 3.66431Q43.2285 3.77214 43.1605 3.87381Q43.0926 3.97548 43.015 4.07Q42.9375 4.16453 42.851 4.25099Q42.7645 4.33745 42.67 4.41502Q42.5755 4.49259 42.4738 4.56053Q42.3721 4.62846 42.2643 4.6861Q42.1565 4.74374 42.0435 4.79054Q41.9305 4.83733 41.8135 4.87282Q41.6965 4.90832 41.5766 4.93217Q41.4567 4.95603 41.335 4.96801Q41.2133 4.98 41.091 4.98L2.489 4.98Q2.36672 4.98 2.24504 4.96801Q2.12335 4.95603 2.00342 4.93217Q1.88349 4.90832 1.76648 4.87282Q1.64947 4.83733 1.5365 4.79054Q1.42353 4.74374 1.31569 4.6861Q1.20785 4.62846 1.10619 4.56053Q1.00452 4.49259 0.909995 4.41502Q0.815474 4.33745 0.729011 4.25099Q0.642549 4.16453 0.564977 4.07Q0.487405 3.97548 0.419472 3.87381Q0.351539 3.77214 0.293898 3.66431Q0.236257 3.55647 0.189464 3.4435Q0.142671 3.33053 0.107175 3.21352Q0.0716804 3.09651 0.0478254 2.97658Q0.0239704 2.85665 0.0119852 2.73496Q0 2.61328 0 2.491L0 2.489Q0 2.36672 0.0119852 2.24504Q0.0239704 2.12335 0.0478254 2.00342Q0.0716804 1.88349 0.107175 1.76648Q0.142671 1.64947 0.189464 1.5365Q0.236257 1.42353 0.293898 1.31569Q0.351539 1.20785 0.419472 1.10619Q0.487405 1.00452 0.564977 0.909995Q0.642549 0.815474 0.729011 0.729011Q0.815474 0.642549 0.909995 0.564977Q1.00452 0.487405 1.10619 0.419472Q1.20786 0.351539 1.31569 0.293898Q1.42353 0.236257 1.5365 0.189464Q1.64947 0.142671 1.76648 0.107175Q1.88349 0.0716804 2.00342 0.0478254Q2.12335 0.0239704 2.24504 0.0119852Q2.36672 0 2.489 0Z" transform="translate(56.57 30.76)" id="Rectangle" fill="#498DBC" fill-opacity="0.3" fill-rule="evenodd" stroke="none" />
    <path d="M2.489 0L41.091 0Q41.2133 0 41.335 0.0119852Q41.4567 0.0239704 41.5766 0.0478254Q41.6965 0.0716804 41.8135 0.107175Q41.9305 0.142671 42.0435 0.189464Q42.1565 0.236257 42.2643 0.293898Q42.3721 0.351539 42.4738 0.419472Q42.5755 0.487405 42.67 0.564977Q42.7645 0.642549 42.851 0.729011Q42.9375 0.815474 43.015 0.909995Q43.0926 1.00452 43.1605 1.10619Q43.2285 1.20786 43.2861 1.31569Q43.3437 1.42353 43.3905 1.5365Q43.4373 1.64947 43.4728 1.76648Q43.5083 1.88349 43.5322 2.00342Q43.556 2.12335 43.568 2.24504Q43.58 2.36672 43.58 2.489L43.58 2.491Q43.58 2.61328 43.568 2.73496Q43.556 2.85665 43.5322 2.97658Q43.5083 3.09651 43.4728 3.21352Q43.4373 3.33053 43.3905 3.4435Q43.3437 3.55647 43.2861 3.66431Q43.2285 3.77214 43.1605 3.87381Q43.0926 3.97548 43.015 4.07Q42.9375 4.16453 42.851 4.25099Q42.7645 4.33745 42.67 4.41502Q42.5755 4.49259 42.4738 4.56053Q42.3721 4.62846 42.2643 4.6861Q42.1565 4.74374 42.0435 4.79054Q41.9305 4.83733 41.8135 4.87282Q41.6965 4.90832 41.5766 4.93217Q41.4567 4.95603 41.335 4.96801Q41.2133 4.98 41.091 4.98L2.489 4.98Q2.36672 4.98 2.24504 4.96801Q2.12335 4.95603 2.00342 4.93217Q1.88349 4.90832 1.76648 4.87282Q1.64947 4.83733 1.5365 4.79054Q1.42353 4.74374 1.31569 4.6861Q1.20785 4.62846 1.10619 4.56053Q1.00452 4.49259 0.909995 4.41502Q0.815474 4.33745 0.729011 4.25099Q0.642549 4.16453 0.564977 4.07Q0.487405 3.97548 0.419472 3.87381Q0.351539 3.77214 0.293898 3.66431Q0.236257 3.55647 0.189464 3.4435Q0.142671 3.33053 0.107175 3.21352Q0.0716804 3.09651 0.0478254 2.97658Q0.0239704 2.85665 0.0119852 2.73496Q0 2.61328 0 2.491L0 2.489Q0 2.36672 0.0119852 2.24504Q0.0239704 2.12335 0.0478254 2.00342Q0.0716804 1.88349 0.107175 1.76648Q0.142671 1.64947 0.189464 1.5365Q0.236257 1.42353 0.293898 1.31569Q0.351539 1.20785 0.419472 1.10619Q0.487405 1.00452 0.564977 0.909995Q0.642549 0.815474 0.729011 0.729011Q0.815474 0.642549 0.909995 0.564977Q1.00452 0.487405 1.10619 0.419472Q1.20786 0.351539 1.31569 0.293898Q1.42353 0.236257 1.5365 0.189464Q1.64947 0.142671 1.76648 0.107175Q1.88349 0.0716804 2.00342 0.0478254Q2.12335 0.0239704 2.24504 0.0119852Q2.36672 0 2.489 0Z" transform="translate(56.57 39.32)" id="Rectangle" fill="#498DBC" fill-opacity="0.3" fill-rule="evenodd" stroke="none" />
    <path d="M2.489 0L41.091 0Q41.2133 0 41.335 0.0119852Q41.4567 0.0239704 41.5766 0.0478254Q41.6965 0.0716804 41.8135 0.107175Q41.9305 0.142671 42.0435 0.189464Q42.1565 0.236257 42.2643 0.293898Q42.3721 0.351539 42.4738 0.419472Q42.5755 0.487405 42.67 0.564977Q42.7645 0.642549 42.851 0.729011Q42.9375 0.815474 43.015 0.909995Q43.0926 1.00452 43.1605 1.10619Q43.2285 1.20786 43.2861 1.31569Q43.3437 1.42353 43.3905 1.5365Q43.4373 1.64947 43.4728 1.76648Q43.5083 1.88349 43.5322 2.00342Q43.556 2.12335 43.568 2.24504Q43.58 2.36672 43.58 2.489L43.58 2.491Q43.58 2.61328 43.568 2.73496Q43.556 2.85665 43.5322 2.97658Q43.5083 3.09651 43.4728 3.21352Q43.4373 3.33053 43.3905 3.4435Q43.3437 3.55647 43.2861 3.66431Q43.2285 3.77214 43.1605 3.87381Q43.0926 3.97548 43.015 4.07Q42.9375 4.16453 42.851 4.25099Q42.7645 4.33745 42.67 4.41502Q42.5755 4.49259 42.4738 4.56053Q42.3721 4.62846 42.2643 4.6861Q42.1565 4.74374 42.0435 4.79054Q41.9305 4.83733 41.8135 4.87282Q41.6965 4.90832 41.5766 4.93217Q41.4567 4.95603 41.335 4.96801Q41.2133 4.98 41.091 4.98L2.489 4.98Q2.36672 4.98 2.24504 4.96801Q2.12335 4.95603 2.00342 4.93217Q1.88349 4.90832 1.76648 4.87282Q1.64947 4.83733 1.5365 4.79054Q1.42353 4.74374 1.31569 4.6861Q1.20785 4.62846 1.10619 4.56053Q1.00452 4.49259 0.909995 4.41502Q0.815474 4.33745 0.729011 4.25099Q0.642549 4.16453 0.564977 4.07Q0.487405 3.97548 0.419472 3.87381Q0.351539 3.77214 0.293898 3.66431Q0.236257 3.55647 0.189464 3.4435Q0.142671 3.33053 0.107175 3.21352Q0.0716804 3.09651 0.0478254 2.97658Q0.0239704 2.85665 0.0119852 2.73496Q0 2.61328 0 2.491L0 2.489Q0 2.36672 0.0119852 2.24504Q0.0239704 2.12335 0.0478254 2.00342Q0.0716804 1.88349 0.107175 1.76648Q0.142671 1.64947 0.189464 1.5365Q0.236257 1.42353 0.293898 1.31569Q0.351539 1.20785 0.419472 1.10619Q0.487405 1.00452 0.564977 0.909995Q0.642549 0.815474 0.729011 0.729011Q0.815474 0.642549 0.909995 0.564977Q1.00452 0.487405 1.10619 0.419472Q1.20786 0.351539 1.31569 0.293898Q1.42353 0.236257 1.5365 0.189464Q1.64947 0.142671 1.76648 0.107175Q1.88349 0.0716804 2.00342 0.0478254Q2.12335 0.0239704 2.24504 0.0119852Q2.36672 0 2.489 0Z" transform="translate(56.57 47.88)" id="Rectangle" fill="#498DBC" fill-opacity="0.3" fill-rule="evenodd" stroke="none" />
    <path d="M2.489 0L41.091 0Q41.2133 0 41.335 0.0119852Q41.4567 0.0239704 41.5766 0.0478254Q41.6965 0.0716804 41.8135 0.107175Q41.9305 0.142671 42.0435 0.189464Q42.1565 0.236257 42.2643 0.293898Q42.3721 0.351539 42.4738 0.419472Q42.5755 0.487405 42.67 0.564977Q42.7645 0.642549 42.851 0.729011Q42.9375 0.815474 43.015 0.909995Q43.0926 1.00452 43.1605 1.10619Q43.2285 1.20786 43.2861 1.31569Q43.3437 1.42353 43.3905 1.5365Q43.4373 1.64947 43.4728 1.76648Q43.5083 1.88349 43.5322 2.00342Q43.556 2.12335 43.568 2.24504Q43.58 2.36672 43.58 2.489L43.58 2.491Q43.58 2.61328 43.568 2.73496Q43.556 2.85665 43.5322 2.97658Q43.5083 3.09651 43.4728 3.21352Q43.4373 3.33053 43.3905 3.4435Q43.3437 3.55647 43.2861 3.66431Q43.2285 3.77214 43.1605 3.87381Q43.0926 3.97548 43.015 4.07Q42.9375 4.16453 42.851 4.25099Q42.7645 4.33745 42.67 4.41502Q42.5755 4.49259 42.4738 4.56053Q42.3721 4.62846 42.2643 4.6861Q42.1565 4.74374 42.0435 4.79054Q41.9305 4.83733 41.8135 4.87282Q41.6965 4.90832 41.5766 4.93217Q41.4567 4.95603 41.335 4.96801Q41.2133 4.98 41.091 4.98L2.489 4.98Q2.36672 4.98 2.24504 4.96801Q2.12335 4.95603 2.00342 4.93217Q1.88349 4.90832 1.76648 4.87282Q1.64947 4.83733 1.5365 4.79054Q1.42353 4.74374 1.31569 4.6861Q1.20785 4.62846 1.10619 4.56053Q1.00452 4.49259 0.909995 4.41502Q0.815474 4.33745 0.729011 4.25099Q0.642549 4.16453 0.564977 4.07Q0.487405 3.97548 0.419472 3.87381Q0.351539 3.77214 0.293898 3.66431Q0.236257 3.55647 0.189464 3.4435Q0.142671 3.33053 0.107175 3.21352Q0.0716804 3.09651 0.0478254 2.97658Q0.0239704 2.85665 0.0119852 2.73496Q0 2.61328 0 2.491L0 2.489Q0 2.36672 0.0119852 2.24504Q0.0239704 2.12335 0.0478254 2.00342Q0.0716804 1.88349 0.107175 1.76648Q0.142671 1.64947 0.189464 1.5365Q0.236257 1.42353 0.293898 1.31569Q0.351539 1.20785 0.419472 1.10619Q0.487405 1.00452 0.564977 0.909995Q0.642549 0.815474 0.729011 0.729011Q0.815474 0.642549 0.909995 0.564977Q1.00452 0.487405 1.10619 0.419472Q1.20786 0.351539 1.31569 0.293898Q1.42353 0.236257 1.5365 0.189464Q1.64947 0.142671 1.76648 0.107175Q1.88349 0.0716804 2.00342 0.0478254Q2.12335 0.0239704 2.24504 0.0119852Q2.36672 0 2.489 0Z" transform="translate(56.57 56.44)" id="Rectangle" fill="#498DBC" fill-opacity="0.3" fill-rule="evenodd" stroke="none" />
    <path d="M31.34 62.68C48.6486 62.68 62.68 48.6486 62.68 31.34C62.68 14.0314 48.6486 0 31.34 0C14.0314 0 0 14.0314 0 31.34C0 48.6486 14.0314 62.68 31.34 62.68Z" transform="translate(87.32 27.66)" id="Oval" fill="url(#gradient_2)" fill-rule="evenodd" stroke="none" />
    <path d="M21.52 43.04C33.4052 43.04 43.04 33.4052 43.04 21.52C43.04 9.63483 33.4052 0 21.52 0C9.63483 0 0 9.63483 0 21.52C0 33.4052 9.63483 43.04 21.52 43.04Z" transform="translate(97.14 37.48)" id="Oval" fill="#F15A24" fill-opacity="0.5" fill-rule="evenodd" stroke="none" />
    <path d="M28.46 16.61L28.46 11.9L24.55 11.13C24.338 10.4368 24.0566 9.7667 23.71 9.13L25.87 5.9L22.55 2.55L19.31 4.7C18.6741 4.3517 18.0039 4.0702 17.31 3.86L16.55 0L11.85 0L11.09 3.86C10.3961 4.0702 9.72588 4.3517 9.09 4.7L5.85 2.55L2.55 5.88L4.71 9.11C4.3634 9.7467 4.08198 10.4168 3.87 11.11L0 11.88L0 16.59L3.87 17.35C4.0802 18.0439 4.3617 18.7141 4.71 19.35L2.55 22.62L5.88 25.95L9.12 23.8C9.75588 24.1483 10.4261 24.4298 11.12 24.64L11.88 28.5L16.55 28.5L17.31 24.64C18.003 24.4275 18.673 24.146 19.31 23.8L22.55 25.95L25.88 22.62L23.72 19.39C24.0683 18.7541 24.3498 18.0839 24.56 17.39L28.46 16.61ZM14.21 20.08C11.852 20.08 9.72616 18.6596 8.82378 16.481C7.92141 14.3025 8.4202 11.7949 10.0876 10.1276C11.7549 8.4602 14.2625 7.96141 16.441 8.86378C18.6196 9.76616 20.04 11.892 20.04 14.25C20.0345 17.4675 17.4275 20.0745 14.21 20.08L14.21 20.08Z" transform="translate(104.45 44.75)" id="Shape" fill="#FFFFFF" stroke="none" />
    <path d="M4.619 0L27.371 0Q27.4844 0 27.5976 0.00556379Q27.7109 0.0111276 27.8237 0.0222417Q27.9366 0.0333559 28.0487 0.0499937Q28.1609 0.0666315 28.2721 0.0887528Q28.3833 0.110874 28.4933 0.138426Q28.6033 0.165977 28.7118 0.198893Q28.8203 0.231808 28.9271 0.270008Q29.0339 0.308208 29.1386 0.3516Q29.2434 0.394993 29.3459 0.443473Q29.4484 0.491954 29.5484 0.545406Q29.6484 0.598857 29.7456 0.657151Q29.8429 0.715446 29.9372 0.778442Q30.0315 0.841438 30.1225 0.908984Q30.2136 0.976531 30.3013 1.04846Q30.3889 1.1204 30.4729 1.19655Q30.5569 1.27269 30.6371 1.35287Q30.7173 1.43305 30.7935 1.51707Q30.8696 1.60109 30.9415 1.68874Q31.0135 1.77639 31.081 1.86746Q31.1486 1.95854 31.2116 2.05282Q31.2745 2.1471 31.3328 2.24436Q31.3911 2.34162 31.4446 2.44162Q31.498 2.54162 31.5465 2.64412Q31.595 2.74663 31.6384 2.85138Q31.6818 2.95614 31.72 3.06291Q31.7582 3.16967 31.7911 3.27817Q31.824 3.38668 31.8516 3.49667Q31.8791 3.60667 31.9012 3.71788Q31.9234 3.82909 31.94 3.94125Q31.9566 4.05341 31.9678 4.16626Q31.9789 4.2791 31.9844 4.39236Q31.99 4.50561 31.99 4.619L31.99 27.371Q31.99 27.4844 31.9844 27.5976Q31.9789 27.7109 31.9678 27.8237Q31.9566 27.9366 31.94 28.0487Q31.9234 28.1609 31.9012 28.2721Q31.8791 28.3833 31.8516 28.4933Q31.824 28.6033 31.7911 28.7118Q31.7582 28.8203 31.72 28.9271Q31.6818 29.0339 31.6384 29.1386Q31.595 29.2434 31.5465 29.3459Q31.498 29.4484 31.4446 29.5484Q31.3911 29.6484 31.3328 29.7456Q31.2745 29.8429 31.2116 29.9372Q31.1486 30.0315 31.081 30.1225Q31.0135 30.2136 30.9415 30.3013Q30.8696 30.3889 30.7935 30.4729Q30.7173 30.5569 30.6371 30.6371Q30.5569 30.7173 30.4729 30.7935Q30.3889 30.8696 30.3013 30.9415Q30.2136 31.0135 30.1225 31.081Q30.0315 31.1486 29.9372 31.2116Q29.8429 31.2745 29.7456 31.3328Q29.6484 31.3911 29.5484 31.4446Q29.4484 31.498 29.3459 31.5465Q29.2434 31.595 29.1386 31.6384Q29.0339 31.6818 28.9271 31.72Q28.8203 31.7582 28.7118 31.7911Q28.6033 31.824 28.4933 31.8516Q28.3833 31.8791 28.2721 31.9012Q28.1609 31.9234 28.0487 31.94Q27.9366 31.9566 27.8237 31.9678Q27.7109 31.9789 27.5976 31.9844Q27.4844 31.99 27.371 31.99L4.619 31.99Q4.50561 31.99 4.39236 31.9844Q4.2791 31.9789 4.16626 31.9678Q4.05341 31.9566 3.94125 31.94Q3.82909 31.9234 3.71788 31.9012Q3.60667 31.8791 3.49667 31.8516Q3.38668 31.824 3.27818 31.7911Q3.16967 31.7582 3.06291 31.72Q2.95614 31.6818 2.85138 31.6384Q2.74663 31.595 2.64412 31.5465Q2.54162 31.498 2.44162 31.4446Q2.34162 31.3911 2.24436 31.3328Q2.1471 31.2745 2.05282 31.2116Q1.95854 31.1486 1.86746 31.081Q1.77639 31.0135 1.68874 30.9415Q1.60109 30.8696 1.51707 30.7935Q1.43305 30.7173 1.35287 30.6371Q1.27269 30.5569 1.19655 30.4729Q1.1204 30.3889 1.04846 30.3013Q0.976531 30.2136 0.908984 30.1225Q0.841438 30.0315 0.778442 29.9372Q0.715446 29.8429 0.657152 29.7456Q0.598857 29.6484 0.545406 29.5484Q0.491954 29.4484 0.443473 29.3459Q0.394993 29.2434 0.3516 29.1386Q0.308208 29.0339 0.270008 28.9271Q0.231808 28.8203 0.198893 28.7118Q0.165977 28.6033 0.138426 28.4933Q0.110874 28.3833 0.0887528 28.2721Q0.0666315 28.1609 0.0499937 28.0487Q0.0333559 27.9366 0.0222417 27.8237Q0.0111276 27.7109 0.00556379 27.5976Q0 27.4844 0 27.371L0 4.619Q0 4.50561 0.00556379 4.39236Q0.0111276 4.2791 0.0222417 4.16626Q0.0333559 4.05341 0.0499937 3.94125Q0.0666315 3.82909 0.0887528 3.71788Q0.110874 3.60667 0.138426 3.49667Q0.165977 3.38668 0.198893 3.27818Q0.231808 3.16967 0.270008 3.06291Q0.308208 2.95614 0.3516 2.85138Q0.394993 2.74663 0.443473 2.64412Q0.491954 2.54162 0.545406 2.44162Q0.598857 2.34162 0.657151 2.24436Q0.715446 2.1471 0.778442 2.05282Q0.841438 1.95854 0.908984 1.86746Q0.976531 1.77639 1.04846 1.68874Q1.1204 1.60109 1.19655 1.51707Q1.27269 1.43305 1.35287 1.35287Q1.43305 1.27269 1.51707 1.19655Q1.60109 1.1204 1.68874 1.04846Q1.77639 0.976531 1.86746 0.908984Q1.95854 0.841438 2.05282 0.778442Q2.1471 0.715446 2.24436 0.657152Q2.34162 0.598857 2.44162 0.545406Q2.54162 0.491954 2.64412 0.443473Q2.74663 0.394993 2.85138 0.3516Q2.95614 0.308208 3.06291 0.270008Q3.16967 0.231808 3.27817 0.198893Q3.38668 0.165977 3.49667 0.138426Q3.60667 0.110874 3.71788 0.0887528Q3.82909 0.0666315 3.94125 0.0499937Q4.05341 0.0333559 4.16626 0.0222417Q4.2791 0.0111276 4.39236 0.00556379Q4.50561 0 4.619 0Z" transform="matrix(-1 -8.742278E-08 8.742278E-08 -1 52.149998 62.75)" id="Rectangle" fill="#498DBC" fill-opacity="0.3" fill-rule="evenodd" stroke="none" />
    <path d="M18.41 10.77L18.41 7.77L15.91 7.27C15.7759 6.81898 15.5949 6.38327 15.37 5.97L16.76 3.88L14.61 1.72L12.52 3.12C12.1069 2.86413 11.6678 2.65294 11.21 2.49L10.72 0L7.72 0L7.19 2.49C6.73545 2.62743 6.29642 2.81175 5.88 3.04L3.79 1.64L1.64 3.84L3.04 5.93C2.81505 6.34326 2.63406 6.77898 2.5 7.23L0 7.73L0 10.73L2.5 11.22C2.63326 11.6873 2.81421 12.1397 3.04 12.57L1.64 14.66L3.79 16.81L5.88 15.42C6.2987 15.6408 6.73731 15.8216 7.19 15.96L7.68 18.46L10.68 18.46L11.17 15.96C11.6227 15.8216 12.0613 15.6408 12.48 15.42L14.57 16.81L16.72 14.66L15.33 12.57C15.5533 12.1525 15.7342 11.7136 15.87 11.26L18.41 10.77ZM9.2 13.02C7.11789 13.02 5.43 11.3321 5.43 9.25C5.43 7.16789 7.11789 5.48 9.2 5.48C11.2821 5.48 12.97 7.16789 12.97 9.25C12.97 11.3321 11.2821 13.02 9.2 13.02L9.2 13.02Z" transform="translate(26.96 37.51)" id="Shape" fill="#FFFFFF" stroke="none" />
  </g>
</svg>